G04 #@! TF.GenerationSoftware,KiCad,Pcbnew,(5.1.4)-1*
G04 #@! TF.CreationDate,2019-12-26T17:04:43+00:00*
G04 #@! TF.ProjectId,SPS-SN2-IOTester,5350532d-534e-4322-9d49-4f5465737465,rev?*
G04 #@! TF.SameCoordinates,Original*
G04 #@! TF.FileFunction,Legend,Top*
G04 #@! TF.FilePolarity,Positive*
%FSLAX46Y46*%
G04 Gerber Fmt 4.6, Leading zero omitted, Abs format (unit mm)*
G04 Created by KiCad (PCBNEW (5.1.4)-1) date 2019-12-26 17:04:43*
%MOMM*%
%LPD*%
G04 APERTURE LIST*
%ADD10C,0.150000*%
%ADD11C,0.300000*%
%ADD12C,0.200000*%
%ADD13C,0.127000*%
%ADD14C,0.120000*%
%ADD15C,0.015000*%
G04 APERTURE END LIST*
D10*
X113630952Y-42702380D02*
X113630952Y-43416666D01*
X113583333Y-43559523D01*
X113488095Y-43654761D01*
X113345238Y-43702380D01*
X113250000Y-43702380D01*
X114583333Y-43702380D02*
X114107142Y-43702380D01*
X114107142Y-42702380D01*
X115488095Y-43607142D02*
X115440476Y-43654761D01*
X115297619Y-43702380D01*
X115202380Y-43702380D01*
X115059523Y-43654761D01*
X114964285Y-43559523D01*
X114916666Y-43464285D01*
X114869047Y-43273809D01*
X114869047Y-43130952D01*
X114916666Y-42940476D01*
X114964285Y-42845238D01*
X115059523Y-42750000D01*
X115202380Y-42702380D01*
X115297619Y-42702380D01*
X115440476Y-42750000D01*
X115488095Y-42797619D01*
X116202380Y-42702380D02*
X116202380Y-43416666D01*
X116154761Y-43559523D01*
X116059523Y-43654761D01*
X115916666Y-43702380D01*
X115821428Y-43702380D01*
X117154761Y-43702380D02*
X116678571Y-43702380D01*
X116678571Y-42702380D01*
X118059523Y-43607142D02*
X118011904Y-43654761D01*
X117869047Y-43702380D01*
X117773809Y-43702380D01*
X117630952Y-43654761D01*
X117535714Y-43559523D01*
X117488095Y-43464285D01*
X117440476Y-43273809D01*
X117440476Y-43130952D01*
X117488095Y-42940476D01*
X117535714Y-42845238D01*
X117630952Y-42750000D01*
X117773809Y-42702380D01*
X117869047Y-42702380D01*
X118011904Y-42750000D01*
X118059523Y-42797619D01*
X118773809Y-42702380D02*
X118773809Y-43416666D01*
X118726190Y-43559523D01*
X118630952Y-43654761D01*
X118488095Y-43702380D01*
X118392857Y-43702380D01*
X119726190Y-43702380D02*
X119250000Y-43702380D01*
X119250000Y-42702380D01*
X120630952Y-43607142D02*
X120583333Y-43654761D01*
X120440476Y-43702380D01*
X120345238Y-43702380D01*
X120202380Y-43654761D01*
X120107142Y-43559523D01*
X120059523Y-43464285D01*
X120011904Y-43273809D01*
X120011904Y-43130952D01*
X120059523Y-42940476D01*
X120107142Y-42845238D01*
X120202380Y-42750000D01*
X120345238Y-42702380D01*
X120440476Y-42702380D01*
X120583333Y-42750000D01*
X120630952Y-42797619D01*
X121345238Y-42702380D02*
X121345238Y-43416666D01*
X121297619Y-43559523D01*
X121202380Y-43654761D01*
X121059523Y-43702380D01*
X120964285Y-43702380D01*
X122297619Y-43702380D02*
X121821428Y-43702380D01*
X121821428Y-42702380D01*
X123202380Y-43607142D02*
X123154761Y-43654761D01*
X123011904Y-43702380D01*
X122916666Y-43702380D01*
X122773809Y-43654761D01*
X122678571Y-43559523D01*
X122630952Y-43464285D01*
X122583333Y-43273809D01*
X122583333Y-43130952D01*
X122630952Y-42940476D01*
X122678571Y-42845238D01*
X122773809Y-42750000D01*
X122916666Y-42702380D01*
X123011904Y-42702380D01*
X123154761Y-42750000D01*
X123202380Y-42797619D01*
D11*
X139678571Y-53214285D02*
X140678571Y-52857142D01*
X139678571Y-52500000D01*
X140678571Y-51142857D02*
X140678571Y-52000000D01*
X140678571Y-51571428D02*
X139178571Y-51571428D01*
X139392857Y-51714285D01*
X139535714Y-51857142D01*
X139607142Y-52000000D01*
X139321428Y-49428571D02*
X139250000Y-49357142D01*
X139178571Y-49214285D01*
X139178571Y-48857142D01*
X139250000Y-48714285D01*
X139321428Y-48642857D01*
X139464285Y-48571428D01*
X139607142Y-48571428D01*
X139821428Y-48642857D01*
X140678571Y-49500000D01*
X140678571Y-48571428D01*
X139178571Y-47642857D02*
X139178571Y-47500000D01*
X139250000Y-47357142D01*
X139321428Y-47285714D01*
X139464285Y-47214285D01*
X139750000Y-47142857D01*
X140107142Y-47142857D01*
X140392857Y-47214285D01*
X140535714Y-47285714D01*
X140607142Y-47357142D01*
X140678571Y-47500000D01*
X140678571Y-47642857D01*
X140607142Y-47785714D01*
X140535714Y-47857142D01*
X140392857Y-47928571D01*
X140107142Y-48000000D01*
X139750000Y-48000000D01*
X139464285Y-47928571D01*
X139321428Y-47857142D01*
X139250000Y-47785714D01*
X139178571Y-47642857D01*
X139321428Y-46571428D02*
X139250000Y-46500000D01*
X139178571Y-46357142D01*
X139178571Y-46000000D01*
X139250000Y-45857142D01*
X139321428Y-45785714D01*
X139464285Y-45714285D01*
X139607142Y-45714285D01*
X139821428Y-45785714D01*
X140678571Y-46642857D01*
X140678571Y-45714285D01*
X139178571Y-44785714D02*
X139178571Y-44642857D01*
X139250000Y-44500000D01*
X139321428Y-44428571D01*
X139464285Y-44357142D01*
X139750000Y-44285714D01*
X140107142Y-44285714D01*
X140392857Y-44357142D01*
X140535714Y-44428571D01*
X140607142Y-44500000D01*
X140678571Y-44642857D01*
X140678571Y-44785714D01*
X140607142Y-44928571D01*
X140535714Y-45000000D01*
X140392857Y-45071428D01*
X140107142Y-45142857D01*
X139750000Y-45142857D01*
X139464285Y-45071428D01*
X139321428Y-45000000D01*
X139250000Y-44928571D01*
X139178571Y-44785714D01*
X140678571Y-41785714D02*
X140678571Y-42500000D01*
X139178571Y-42500000D01*
X139178571Y-41500000D02*
X139178571Y-40642857D01*
X140678571Y-41071428D02*
X139178571Y-41071428D01*
X140607142Y-40214285D02*
X140678571Y-40000000D01*
X140678571Y-39642857D01*
X140607142Y-39500000D01*
X140535714Y-39428571D01*
X140392857Y-39357142D01*
X140250000Y-39357142D01*
X140107142Y-39428571D01*
X140035714Y-39500000D01*
X139964285Y-39642857D01*
X139892857Y-39928571D01*
X139821428Y-40071428D01*
X139750000Y-40142857D01*
X139607142Y-40214285D01*
X139464285Y-40214285D01*
X139321428Y-40142857D01*
X139250000Y-40071428D01*
X139178571Y-39928571D01*
X139178571Y-39571428D01*
X139250000Y-39357142D01*
X137428571Y-51464285D02*
X135928571Y-51464285D01*
X135928571Y-50464285D02*
X135928571Y-50178571D01*
X136000000Y-50035714D01*
X136142857Y-49892857D01*
X136428571Y-49821428D01*
X136928571Y-49821428D01*
X137214285Y-49892857D01*
X137357142Y-50035714D01*
X137428571Y-50178571D01*
X137428571Y-50464285D01*
X137357142Y-50607142D01*
X137214285Y-50750000D01*
X136928571Y-50821428D01*
X136428571Y-50821428D01*
X136142857Y-50750000D01*
X136000000Y-50607142D01*
X135928571Y-50464285D01*
X135928571Y-48250000D02*
X135928571Y-47392857D01*
X137428571Y-47821428D02*
X135928571Y-47821428D01*
X137357142Y-46321428D02*
X137428571Y-46464285D01*
X137428571Y-46750000D01*
X137357142Y-46892857D01*
X137214285Y-46964285D01*
X136642857Y-46964285D01*
X136500000Y-46892857D01*
X136428571Y-46750000D01*
X136428571Y-46464285D01*
X136500000Y-46321428D01*
X136642857Y-46250000D01*
X136785714Y-46250000D01*
X136928571Y-46964285D01*
X137357142Y-45678571D02*
X137428571Y-45535714D01*
X137428571Y-45250000D01*
X137357142Y-45107142D01*
X137214285Y-45035714D01*
X137142857Y-45035714D01*
X137000000Y-45107142D01*
X136928571Y-45250000D01*
X136928571Y-45464285D01*
X136857142Y-45607142D01*
X136714285Y-45678571D01*
X136642857Y-45678571D01*
X136500000Y-45607142D01*
X136428571Y-45464285D01*
X136428571Y-45250000D01*
X136500000Y-45107142D01*
X136428571Y-44607142D02*
X136428571Y-44035714D01*
X135928571Y-44392857D02*
X137214285Y-44392857D01*
X137357142Y-44321428D01*
X137428571Y-44178571D01*
X137428571Y-44035714D01*
X137357142Y-42964285D02*
X137428571Y-43107142D01*
X137428571Y-43392857D01*
X137357142Y-43535714D01*
X137214285Y-43607142D01*
X136642857Y-43607142D01*
X136500000Y-43535714D01*
X136428571Y-43392857D01*
X136428571Y-43107142D01*
X136500000Y-42964285D01*
X136642857Y-42892857D01*
X136785714Y-42892857D01*
X136928571Y-43607142D01*
X137428571Y-42250000D02*
X136428571Y-42250000D01*
X136714285Y-42250000D02*
X136571428Y-42178571D01*
X136500000Y-42107142D01*
X136428571Y-41964285D01*
X136428571Y-41821428D01*
X133857142Y-55769285D02*
X133928571Y-55555000D01*
X133928571Y-55197857D01*
X133857142Y-55055000D01*
X133785714Y-54983571D01*
X133642857Y-54912142D01*
X133500000Y-54912142D01*
X133357142Y-54983571D01*
X133285714Y-55055000D01*
X133214285Y-55197857D01*
X133142857Y-55483571D01*
X133071428Y-55626428D01*
X133000000Y-55697857D01*
X132857142Y-55769285D01*
X132714285Y-55769285D01*
X132571428Y-55697857D01*
X132500000Y-55626428D01*
X132428571Y-55483571D01*
X132428571Y-55126428D01*
X132500000Y-54912142D01*
X132928571Y-54412142D02*
X133928571Y-54126428D01*
X133214285Y-53840714D01*
X133928571Y-53555000D01*
X132928571Y-53269285D01*
X133928571Y-52697857D02*
X132928571Y-52697857D01*
X132428571Y-52697857D02*
X132500000Y-52769285D01*
X132571428Y-52697857D01*
X132500000Y-52626428D01*
X132428571Y-52697857D01*
X132571428Y-52697857D01*
X132928571Y-51983571D02*
X133928571Y-51983571D01*
X133071428Y-51983571D02*
X133000000Y-51912142D01*
X132928571Y-51769285D01*
X132928571Y-51555000D01*
X133000000Y-51412142D01*
X133142857Y-51340714D01*
X133928571Y-51340714D01*
X133928571Y-49983571D02*
X132428571Y-49983571D01*
X133857142Y-49983571D02*
X133928571Y-50126428D01*
X133928571Y-50412142D01*
X133857142Y-50555000D01*
X133785714Y-50626428D01*
X133642857Y-50697857D01*
X133214285Y-50697857D01*
X133071428Y-50626428D01*
X133000000Y-50555000D01*
X132928571Y-50412142D01*
X132928571Y-50126428D01*
X133000000Y-49983571D01*
X133928571Y-49055000D02*
X133857142Y-49197857D01*
X133785714Y-49269285D01*
X133642857Y-49340714D01*
X133214285Y-49340714D01*
X133071428Y-49269285D01*
X133000000Y-49197857D01*
X132928571Y-49055000D01*
X132928571Y-48840714D01*
X133000000Y-48697857D01*
X133071428Y-48626428D01*
X133214285Y-48555000D01*
X133642857Y-48555000D01*
X133785714Y-48626428D01*
X133857142Y-48697857D01*
X133928571Y-48840714D01*
X133928571Y-49055000D01*
X132928571Y-47912142D02*
X133928571Y-47912142D01*
X133071428Y-47912142D02*
X133000000Y-47840714D01*
X132928571Y-47697857D01*
X132928571Y-47483571D01*
X133000000Y-47340714D01*
X133142857Y-47269285D01*
X133928571Y-47269285D01*
X133928571Y-45412142D02*
X132428571Y-45412142D01*
X132428571Y-44840714D01*
X132500000Y-44697857D01*
X132571428Y-44626428D01*
X132714285Y-44555000D01*
X132928571Y-44555000D01*
X133071428Y-44626428D01*
X133142857Y-44697857D01*
X133214285Y-44840714D01*
X133214285Y-45412142D01*
X133928571Y-43269285D02*
X133142857Y-43269285D01*
X133000000Y-43340714D01*
X132928571Y-43483571D01*
X132928571Y-43769285D01*
X133000000Y-43912142D01*
X133857142Y-43269285D02*
X133928571Y-43412142D01*
X133928571Y-43769285D01*
X133857142Y-43912142D01*
X133714285Y-43983571D01*
X133571428Y-43983571D01*
X133428571Y-43912142D01*
X133357142Y-43769285D01*
X133357142Y-43412142D01*
X133285714Y-43269285D01*
X132928571Y-42555000D02*
X133928571Y-42555000D01*
X133071428Y-42555000D02*
X133000000Y-42483571D01*
X132928571Y-42340714D01*
X132928571Y-42126428D01*
X133000000Y-41983571D01*
X133142857Y-41912142D01*
X133928571Y-41912142D01*
X133857142Y-40626428D02*
X133928571Y-40769285D01*
X133928571Y-41055000D01*
X133857142Y-41197857D01*
X133714285Y-41269285D01*
X133142857Y-41269285D01*
X133000000Y-41197857D01*
X132928571Y-41055000D01*
X132928571Y-40769285D01*
X133000000Y-40626428D01*
X133142857Y-40555000D01*
X133285714Y-40555000D01*
X133428571Y-41269285D01*
X133928571Y-39697857D02*
X133857142Y-39840714D01*
X133714285Y-39912142D01*
X132428571Y-39912142D01*
D12*
X114770000Y-47980000D02*
G75*
G03X114770000Y-47980000I-100000J0D01*
G01*
D13*
X109995000Y-41630000D02*
X109995000Y-48710000D01*
X126505000Y-41630000D02*
X109995000Y-41630000D01*
X126505000Y-48710000D02*
X126505000Y-41630000D01*
X109995000Y-56870000D02*
X109995000Y-51710000D01*
X126505000Y-56870000D02*
X109995000Y-56870000D01*
X126505000Y-51710000D02*
X126505000Y-56870000D01*
D14*
X141370000Y-85040000D02*
X141040000Y-85040000D01*
X141370000Y-91580000D02*
X141370000Y-85040000D01*
X141040000Y-91580000D02*
X141370000Y-91580000D01*
X138630000Y-85040000D02*
X138960000Y-85040000D01*
X138630000Y-91580000D02*
X138630000Y-85040000D01*
X138960000Y-91580000D02*
X138630000Y-91580000D01*
X138120000Y-85040000D02*
X137790000Y-85040000D01*
X138120000Y-91580000D02*
X138120000Y-85040000D01*
X137790000Y-91580000D02*
X138120000Y-91580000D01*
X135380000Y-85040000D02*
X135710000Y-85040000D01*
X135380000Y-91580000D02*
X135380000Y-85040000D01*
X135710000Y-91580000D02*
X135380000Y-91580000D01*
X141370000Y-75290000D02*
X141040000Y-75290000D01*
X141370000Y-81830000D02*
X141370000Y-75290000D01*
X141040000Y-81830000D02*
X141370000Y-81830000D01*
X138630000Y-75290000D02*
X138960000Y-75290000D01*
X138630000Y-81830000D02*
X138630000Y-75290000D01*
X138960000Y-81830000D02*
X138630000Y-81830000D01*
X138120000Y-75290000D02*
X137790000Y-75290000D01*
X138120000Y-81830000D02*
X138120000Y-75290000D01*
X137790000Y-81830000D02*
X138120000Y-81830000D01*
X135380000Y-75290000D02*
X135710000Y-75290000D01*
X135380000Y-81830000D02*
X135380000Y-75290000D01*
X135710000Y-81830000D02*
X135380000Y-81830000D01*
X141370000Y-65540000D02*
X141040000Y-65540000D01*
X141370000Y-72080000D02*
X141370000Y-65540000D01*
X141040000Y-72080000D02*
X141370000Y-72080000D01*
X138630000Y-65540000D02*
X138960000Y-65540000D01*
X138630000Y-72080000D02*
X138630000Y-65540000D01*
X138960000Y-72080000D02*
X138630000Y-72080000D01*
X138120000Y-65540000D02*
X137790000Y-65540000D01*
X138120000Y-72080000D02*
X138120000Y-65540000D01*
X137790000Y-72080000D02*
X138120000Y-72080000D01*
X135380000Y-65540000D02*
X135710000Y-65540000D01*
X135380000Y-72080000D02*
X135380000Y-65540000D01*
X135710000Y-72080000D02*
X135380000Y-72080000D01*
X141370000Y-55790000D02*
X141040000Y-55790000D01*
X141370000Y-62330000D02*
X141370000Y-55790000D01*
X141040000Y-62330000D02*
X141370000Y-62330000D01*
X138630000Y-55790000D02*
X138960000Y-55790000D01*
X138630000Y-62330000D02*
X138630000Y-55790000D01*
X138960000Y-62330000D02*
X138630000Y-62330000D01*
X138120000Y-55790000D02*
X137790000Y-55790000D01*
X138120000Y-62330000D02*
X138120000Y-55790000D01*
X137790000Y-62330000D02*
X138120000Y-62330000D01*
X135380000Y-55790000D02*
X135710000Y-55790000D01*
X135380000Y-62330000D02*
X135380000Y-55790000D01*
X135710000Y-62330000D02*
X135380000Y-62330000D01*
X126500000Y-90250000D02*
X126500000Y-88750000D01*
X125250000Y-86250000D02*
X120750000Y-86250000D01*
X119500000Y-88750000D02*
X119500000Y-90250000D01*
X120750000Y-92750000D02*
X125250000Y-92750000D01*
X117000000Y-90250000D02*
X117000000Y-88750000D01*
X115750000Y-86250000D02*
X111250000Y-86250000D01*
X110000000Y-88750000D02*
X110000000Y-90250000D01*
X111250000Y-92750000D02*
X115750000Y-92750000D01*
X126500000Y-81250000D02*
X126500000Y-79750000D01*
X125250000Y-77250000D02*
X120750000Y-77250000D01*
X119500000Y-79750000D02*
X119500000Y-81250000D01*
X120750000Y-83750000D02*
X125250000Y-83750000D01*
X117000000Y-81250000D02*
X117000000Y-79750000D01*
X115750000Y-77250000D02*
X111250000Y-77250000D01*
X110000000Y-79750000D02*
X110000000Y-81250000D01*
X111250000Y-83750000D02*
X115750000Y-83750000D01*
X126500000Y-72250000D02*
X126500000Y-70750000D01*
X125250000Y-68250000D02*
X120750000Y-68250000D01*
X119500000Y-70750000D02*
X119500000Y-72250000D01*
X120750000Y-74750000D02*
X125250000Y-74750000D01*
X117000000Y-72250000D02*
X117000000Y-70750000D01*
X115750000Y-68250000D02*
X111250000Y-68250000D01*
X110000000Y-70750000D02*
X110000000Y-72250000D01*
X111250000Y-74750000D02*
X115750000Y-74750000D01*
X126500000Y-63250000D02*
X126500000Y-61750000D01*
X125250000Y-59250000D02*
X120750000Y-59250000D01*
X119500000Y-61750000D02*
X119500000Y-63250000D01*
X120750000Y-65750000D02*
X125250000Y-65750000D01*
X117000000Y-63250000D02*
X117000000Y-61750000D01*
X115750000Y-59250000D02*
X111250000Y-59250000D01*
X110000000Y-61750000D02*
X110000000Y-63250000D01*
X111250000Y-65750000D02*
X115750000Y-65750000D01*
D12*
X127060000Y-54873000D02*
G75*
G03X127060000Y-54873000I-100000J0D01*
G01*
D13*
X128230000Y-57000000D02*
X130770000Y-57000000D01*
X128230000Y-39000000D02*
X128230000Y-57000000D01*
X130770000Y-39000000D02*
X128230000Y-39000000D01*
X130770000Y-57000000D02*
X130770000Y-39000000D01*
D14*
X128920000Y-92080000D02*
X128920000Y-92236000D01*
X128920000Y-89764000D02*
X128920000Y-89920000D01*
X131521130Y-92079837D02*
G75*
G02X129439039Y-92080000I-1041130J1079837D01*
G01*
X131521130Y-89920163D02*
G75*
G03X129439039Y-89920000I-1041130J-1079837D01*
G01*
X132152335Y-92078608D02*
G75*
G02X128920000Y-92235516I-1672335J1078608D01*
G01*
X132152335Y-89921392D02*
G75*
G03X128920000Y-89764484I-1672335J-1078608D01*
G01*
X128920000Y-87580000D02*
X128920000Y-87736000D01*
X128920000Y-85264000D02*
X128920000Y-85420000D01*
X131521130Y-87579837D02*
G75*
G02X129439039Y-87580000I-1041130J1079837D01*
G01*
X131521130Y-85420163D02*
G75*
G03X129439039Y-85420000I-1041130J-1079837D01*
G01*
X132152335Y-87578608D02*
G75*
G02X128920000Y-87735516I-1672335J1078608D01*
G01*
X132152335Y-85421392D02*
G75*
G03X128920000Y-85264484I-1672335J-1078608D01*
G01*
X128920000Y-83080000D02*
X128920000Y-83236000D01*
X128920000Y-80764000D02*
X128920000Y-80920000D01*
X131521130Y-83079837D02*
G75*
G02X129439039Y-83080000I-1041130J1079837D01*
G01*
X131521130Y-80920163D02*
G75*
G03X129439039Y-80920000I-1041130J-1079837D01*
G01*
X132152335Y-83078608D02*
G75*
G02X128920000Y-83235516I-1672335J1078608D01*
G01*
X132152335Y-80921392D02*
G75*
G03X128920000Y-80764484I-1672335J-1078608D01*
G01*
X128920000Y-78580000D02*
X128920000Y-78736000D01*
X128920000Y-76264000D02*
X128920000Y-76420000D01*
X131521130Y-78579837D02*
G75*
G02X129439039Y-78580000I-1041130J1079837D01*
G01*
X131521130Y-76420163D02*
G75*
G03X129439039Y-76420000I-1041130J-1079837D01*
G01*
X132152335Y-78578608D02*
G75*
G02X128920000Y-78735516I-1672335J1078608D01*
G01*
X132152335Y-76421392D02*
G75*
G03X128920000Y-76264484I-1672335J-1078608D01*
G01*
X128920000Y-74080000D02*
X128920000Y-74236000D01*
X128920000Y-71764000D02*
X128920000Y-71920000D01*
X131521130Y-74079837D02*
G75*
G02X129439039Y-74080000I-1041130J1079837D01*
G01*
X131521130Y-71920163D02*
G75*
G03X129439039Y-71920000I-1041130J-1079837D01*
G01*
X132152335Y-74078608D02*
G75*
G02X128920000Y-74235516I-1672335J1078608D01*
G01*
X132152335Y-71921392D02*
G75*
G03X128920000Y-71764484I-1672335J-1078608D01*
G01*
X128920000Y-69580000D02*
X128920000Y-69736000D01*
X128920000Y-67264000D02*
X128920000Y-67420000D01*
X131521130Y-69579837D02*
G75*
G02X129439039Y-69580000I-1041130J1079837D01*
G01*
X131521130Y-67420163D02*
G75*
G03X129439039Y-67420000I-1041130J-1079837D01*
G01*
X132152335Y-69578608D02*
G75*
G02X128920000Y-69735516I-1672335J1078608D01*
G01*
X132152335Y-67421392D02*
G75*
G03X128920000Y-67264484I-1672335J-1078608D01*
G01*
X128920000Y-65080000D02*
X128920000Y-65236000D01*
X128920000Y-62764000D02*
X128920000Y-62920000D01*
X131521130Y-65079837D02*
G75*
G02X129439039Y-65080000I-1041130J1079837D01*
G01*
X131521130Y-62920163D02*
G75*
G03X129439039Y-62920000I-1041130J-1079837D01*
G01*
X132152335Y-65078608D02*
G75*
G02X128920000Y-65235516I-1672335J1078608D01*
G01*
X132152335Y-62921392D02*
G75*
G03X128920000Y-62764484I-1672335J-1078608D01*
G01*
X128920000Y-60580000D02*
X128920000Y-60736000D01*
X128920000Y-58264000D02*
X128920000Y-58420000D01*
X131521130Y-60579837D02*
G75*
G02X129439039Y-60580000I-1041130J1079837D01*
G01*
X131521130Y-58420163D02*
G75*
G03X129439039Y-58420000I-1041130J-1079837D01*
G01*
X132152335Y-60578608D02*
G75*
G02X128920000Y-60735516I-1672335J1078608D01*
G01*
X132152335Y-58421392D02*
G75*
G03X128920000Y-58264484I-1672335J-1078608D01*
G01*
D10*
X117916490Y-46202091D02*
X117916490Y-46916754D01*
X117868846Y-47059687D01*
X117773558Y-47154975D01*
X117630625Y-47202619D01*
X117535337Y-47202619D01*
X118917018Y-47202619D02*
X118345288Y-47202619D01*
X118631153Y-47202619D02*
X118631153Y-46202091D01*
X118535865Y-46345024D01*
X118440576Y-46440312D01*
X118345288Y-46487956D01*
X140452380Y-88476666D02*
X139976190Y-88810000D01*
X140452380Y-89048095D02*
X139452380Y-89048095D01*
X139452380Y-88667142D01*
X139500000Y-88571904D01*
X139547619Y-88524285D01*
X139642857Y-88476666D01*
X139785714Y-88476666D01*
X139880952Y-88524285D01*
X139928571Y-88571904D01*
X139976190Y-88667142D01*
X139976190Y-89048095D01*
X139880952Y-87905238D02*
X139833333Y-88000476D01*
X139785714Y-88048095D01*
X139690476Y-88095714D01*
X139642857Y-88095714D01*
X139547619Y-88048095D01*
X139500000Y-88000476D01*
X139452380Y-87905238D01*
X139452380Y-87714761D01*
X139500000Y-87619523D01*
X139547619Y-87571904D01*
X139642857Y-87524285D01*
X139690476Y-87524285D01*
X139785714Y-87571904D01*
X139833333Y-87619523D01*
X139880952Y-87714761D01*
X139880952Y-87905238D01*
X139928571Y-88000476D01*
X139976190Y-88048095D01*
X140071428Y-88095714D01*
X140261904Y-88095714D01*
X140357142Y-88048095D01*
X140404761Y-88000476D01*
X140452380Y-87905238D01*
X140452380Y-87714761D01*
X140404761Y-87619523D01*
X140357142Y-87571904D01*
X140261904Y-87524285D01*
X140071428Y-87524285D01*
X139976190Y-87571904D01*
X139928571Y-87619523D01*
X139880952Y-87714761D01*
X137202380Y-88476666D02*
X136726190Y-88810000D01*
X137202380Y-89048095D02*
X136202380Y-89048095D01*
X136202380Y-88667142D01*
X136250000Y-88571904D01*
X136297619Y-88524285D01*
X136392857Y-88476666D01*
X136535714Y-88476666D01*
X136630952Y-88524285D01*
X136678571Y-88571904D01*
X136726190Y-88667142D01*
X136726190Y-89048095D01*
X136202380Y-88143333D02*
X136202380Y-87476666D01*
X137202380Y-87905238D01*
X140452380Y-78666666D02*
X139976190Y-79000000D01*
X140452380Y-79238095D02*
X139452380Y-79238095D01*
X139452380Y-78857142D01*
X139500000Y-78761904D01*
X139547619Y-78714285D01*
X139642857Y-78666666D01*
X139785714Y-78666666D01*
X139880952Y-78714285D01*
X139928571Y-78761904D01*
X139976190Y-78857142D01*
X139976190Y-79238095D01*
X139452380Y-77809523D02*
X139452380Y-78000000D01*
X139500000Y-78095238D01*
X139547619Y-78142857D01*
X139690476Y-78238095D01*
X139880952Y-78285714D01*
X140261904Y-78285714D01*
X140357142Y-78238095D01*
X140404761Y-78190476D01*
X140452380Y-78095238D01*
X140452380Y-77904761D01*
X140404761Y-77809523D01*
X140357142Y-77761904D01*
X140261904Y-77714285D01*
X140023809Y-77714285D01*
X139928571Y-77761904D01*
X139880952Y-77809523D01*
X139833333Y-77904761D01*
X139833333Y-78095238D01*
X139880952Y-78190476D01*
X139928571Y-78238095D01*
X140023809Y-78285714D01*
X137202380Y-78726666D02*
X136726190Y-79060000D01*
X137202380Y-79298095D02*
X136202380Y-79298095D01*
X136202380Y-78917142D01*
X136250000Y-78821904D01*
X136297619Y-78774285D01*
X136392857Y-78726666D01*
X136535714Y-78726666D01*
X136630952Y-78774285D01*
X136678571Y-78821904D01*
X136726190Y-78917142D01*
X136726190Y-79298095D01*
X136202380Y-77821904D02*
X136202380Y-78298095D01*
X136678571Y-78345714D01*
X136630952Y-78298095D01*
X136583333Y-78202857D01*
X136583333Y-77964761D01*
X136630952Y-77869523D01*
X136678571Y-77821904D01*
X136773809Y-77774285D01*
X137011904Y-77774285D01*
X137107142Y-77821904D01*
X137154761Y-77869523D01*
X137202380Y-77964761D01*
X137202380Y-78202857D01*
X137154761Y-78298095D01*
X137107142Y-78345714D01*
X140452380Y-68976666D02*
X139976190Y-69310000D01*
X140452380Y-69548095D02*
X139452380Y-69548095D01*
X139452380Y-69167142D01*
X139500000Y-69071904D01*
X139547619Y-69024285D01*
X139642857Y-68976666D01*
X139785714Y-68976666D01*
X139880952Y-69024285D01*
X139928571Y-69071904D01*
X139976190Y-69167142D01*
X139976190Y-69548095D01*
X139785714Y-68119523D02*
X140452380Y-68119523D01*
X139404761Y-68357619D02*
X140119047Y-68595714D01*
X140119047Y-67976666D01*
X137202380Y-68976666D02*
X136726190Y-69310000D01*
X137202380Y-69548095D02*
X136202380Y-69548095D01*
X136202380Y-69167142D01*
X136250000Y-69071904D01*
X136297619Y-69024285D01*
X136392857Y-68976666D01*
X136535714Y-68976666D01*
X136630952Y-69024285D01*
X136678571Y-69071904D01*
X136726190Y-69167142D01*
X136726190Y-69548095D01*
X136202380Y-68643333D02*
X136202380Y-68024285D01*
X136583333Y-68357619D01*
X136583333Y-68214761D01*
X136630952Y-68119523D01*
X136678571Y-68071904D01*
X136773809Y-68024285D01*
X137011904Y-68024285D01*
X137107142Y-68071904D01*
X137154761Y-68119523D01*
X137202380Y-68214761D01*
X137202380Y-68500476D01*
X137154761Y-68595714D01*
X137107142Y-68643333D01*
X140452380Y-59226666D02*
X139976190Y-59560000D01*
X140452380Y-59798095D02*
X139452380Y-59798095D01*
X139452380Y-59417142D01*
X139500000Y-59321904D01*
X139547619Y-59274285D01*
X139642857Y-59226666D01*
X139785714Y-59226666D01*
X139880952Y-59274285D01*
X139928571Y-59321904D01*
X139976190Y-59417142D01*
X139976190Y-59798095D01*
X139547619Y-58845714D02*
X139500000Y-58798095D01*
X139452380Y-58702857D01*
X139452380Y-58464761D01*
X139500000Y-58369523D01*
X139547619Y-58321904D01*
X139642857Y-58274285D01*
X139738095Y-58274285D01*
X139880952Y-58321904D01*
X140452380Y-58893333D01*
X140452380Y-58274285D01*
X137202380Y-59226666D02*
X136726190Y-59560000D01*
X137202380Y-59798095D02*
X136202380Y-59798095D01*
X136202380Y-59417142D01*
X136250000Y-59321904D01*
X136297619Y-59274285D01*
X136392857Y-59226666D01*
X136535714Y-59226666D01*
X136630952Y-59274285D01*
X136678571Y-59321904D01*
X136726190Y-59417142D01*
X136726190Y-59798095D01*
X137202380Y-58274285D02*
X137202380Y-58845714D01*
X137202380Y-58560000D02*
X136202380Y-58560000D01*
X136345238Y-58655238D01*
X136440476Y-58750476D01*
X136488095Y-58845714D01*
X121666666Y-85654761D02*
X121809523Y-85702380D01*
X122047619Y-85702380D01*
X122142857Y-85654761D01*
X122190476Y-85607142D01*
X122238095Y-85511904D01*
X122238095Y-85416666D01*
X122190476Y-85321428D01*
X122142857Y-85273809D01*
X122047619Y-85226190D01*
X121857142Y-85178571D01*
X121761904Y-85130952D01*
X121714285Y-85083333D01*
X121666666Y-84988095D01*
X121666666Y-84892857D01*
X121714285Y-84797619D01*
X121761904Y-84750000D01*
X121857142Y-84702380D01*
X122095238Y-84702380D01*
X122238095Y-84750000D01*
X122571428Y-84702380D02*
X122809523Y-85702380D01*
X123000000Y-84988095D01*
X123190476Y-85702380D01*
X123428571Y-84702380D01*
X123952380Y-85130952D02*
X123857142Y-85083333D01*
X123809523Y-85035714D01*
X123761904Y-84940476D01*
X123761904Y-84892857D01*
X123809523Y-84797619D01*
X123857142Y-84750000D01*
X123952380Y-84702380D01*
X124142857Y-84702380D01*
X124238095Y-84750000D01*
X124285714Y-84797619D01*
X124333333Y-84892857D01*
X124333333Y-84940476D01*
X124285714Y-85035714D01*
X124238095Y-85083333D01*
X124142857Y-85130952D01*
X123952380Y-85130952D01*
X123857142Y-85178571D01*
X123809523Y-85226190D01*
X123761904Y-85321428D01*
X123761904Y-85511904D01*
X123809523Y-85607142D01*
X123857142Y-85654761D01*
X123952380Y-85702380D01*
X124142857Y-85702380D01*
X124238095Y-85654761D01*
X124285714Y-85607142D01*
X124333333Y-85511904D01*
X124333333Y-85321428D01*
X124285714Y-85226190D01*
X124238095Y-85178571D01*
X124142857Y-85130952D01*
X112166666Y-85654761D02*
X112309523Y-85702380D01*
X112547619Y-85702380D01*
X112642857Y-85654761D01*
X112690476Y-85607142D01*
X112738095Y-85511904D01*
X112738095Y-85416666D01*
X112690476Y-85321428D01*
X112642857Y-85273809D01*
X112547619Y-85226190D01*
X112357142Y-85178571D01*
X112261904Y-85130952D01*
X112214285Y-85083333D01*
X112166666Y-84988095D01*
X112166666Y-84892857D01*
X112214285Y-84797619D01*
X112261904Y-84750000D01*
X112357142Y-84702380D01*
X112595238Y-84702380D01*
X112738095Y-84750000D01*
X113071428Y-84702380D02*
X113309523Y-85702380D01*
X113500000Y-84988095D01*
X113690476Y-85702380D01*
X113928571Y-84702380D01*
X114214285Y-84702380D02*
X114880952Y-84702380D01*
X114452380Y-85702380D01*
X121666666Y-76654761D02*
X121809523Y-76702380D01*
X122047619Y-76702380D01*
X122142857Y-76654761D01*
X122190476Y-76607142D01*
X122238095Y-76511904D01*
X122238095Y-76416666D01*
X122190476Y-76321428D01*
X122142857Y-76273809D01*
X122047619Y-76226190D01*
X121857142Y-76178571D01*
X121761904Y-76130952D01*
X121714285Y-76083333D01*
X121666666Y-75988095D01*
X121666666Y-75892857D01*
X121714285Y-75797619D01*
X121761904Y-75750000D01*
X121857142Y-75702380D01*
X122095238Y-75702380D01*
X122238095Y-75750000D01*
X122571428Y-75702380D02*
X122809523Y-76702380D01*
X123000000Y-75988095D01*
X123190476Y-76702380D01*
X123428571Y-75702380D01*
X124238095Y-75702380D02*
X124047619Y-75702380D01*
X123952380Y-75750000D01*
X123904761Y-75797619D01*
X123809523Y-75940476D01*
X123761904Y-76130952D01*
X123761904Y-76511904D01*
X123809523Y-76607142D01*
X123857142Y-76654761D01*
X123952380Y-76702380D01*
X124142857Y-76702380D01*
X124238095Y-76654761D01*
X124285714Y-76607142D01*
X124333333Y-76511904D01*
X124333333Y-76273809D01*
X124285714Y-76178571D01*
X124238095Y-76130952D01*
X124142857Y-76083333D01*
X123952380Y-76083333D01*
X123857142Y-76130952D01*
X123809523Y-76178571D01*
X123761904Y-76273809D01*
X112166666Y-76654761D02*
X112309523Y-76702380D01*
X112547619Y-76702380D01*
X112642857Y-76654761D01*
X112690476Y-76607142D01*
X112738095Y-76511904D01*
X112738095Y-76416666D01*
X112690476Y-76321428D01*
X112642857Y-76273809D01*
X112547619Y-76226190D01*
X112357142Y-76178571D01*
X112261904Y-76130952D01*
X112214285Y-76083333D01*
X112166666Y-75988095D01*
X112166666Y-75892857D01*
X112214285Y-75797619D01*
X112261904Y-75750000D01*
X112357142Y-75702380D01*
X112595238Y-75702380D01*
X112738095Y-75750000D01*
X113071428Y-75702380D02*
X113309523Y-76702380D01*
X113500000Y-75988095D01*
X113690476Y-76702380D01*
X113928571Y-75702380D01*
X114785714Y-75702380D02*
X114309523Y-75702380D01*
X114261904Y-76178571D01*
X114309523Y-76130952D01*
X114404761Y-76083333D01*
X114642857Y-76083333D01*
X114738095Y-76130952D01*
X114785714Y-76178571D01*
X114833333Y-76273809D01*
X114833333Y-76511904D01*
X114785714Y-76607142D01*
X114738095Y-76654761D01*
X114642857Y-76702380D01*
X114404761Y-76702380D01*
X114309523Y-76654761D01*
X114261904Y-76607142D01*
X121666666Y-67654761D02*
X121809523Y-67702380D01*
X122047619Y-67702380D01*
X122142857Y-67654761D01*
X122190476Y-67607142D01*
X122238095Y-67511904D01*
X122238095Y-67416666D01*
X122190476Y-67321428D01*
X122142857Y-67273809D01*
X122047619Y-67226190D01*
X121857142Y-67178571D01*
X121761904Y-67130952D01*
X121714285Y-67083333D01*
X121666666Y-66988095D01*
X121666666Y-66892857D01*
X121714285Y-66797619D01*
X121761904Y-66750000D01*
X121857142Y-66702380D01*
X122095238Y-66702380D01*
X122238095Y-66750000D01*
X122571428Y-66702380D02*
X122809523Y-67702380D01*
X123000000Y-66988095D01*
X123190476Y-67702380D01*
X123428571Y-66702380D01*
X124238095Y-67035714D02*
X124238095Y-67702380D01*
X124000000Y-66654761D02*
X123761904Y-67369047D01*
X124380952Y-67369047D01*
X112166666Y-67654761D02*
X112309523Y-67702380D01*
X112547619Y-67702380D01*
X112642857Y-67654761D01*
X112690476Y-67607142D01*
X112738095Y-67511904D01*
X112738095Y-67416666D01*
X112690476Y-67321428D01*
X112642857Y-67273809D01*
X112547619Y-67226190D01*
X112357142Y-67178571D01*
X112261904Y-67130952D01*
X112214285Y-67083333D01*
X112166666Y-66988095D01*
X112166666Y-66892857D01*
X112214285Y-66797619D01*
X112261904Y-66750000D01*
X112357142Y-66702380D01*
X112595238Y-66702380D01*
X112738095Y-66750000D01*
X113071428Y-66702380D02*
X113309523Y-67702380D01*
X113500000Y-66988095D01*
X113690476Y-67702380D01*
X113928571Y-66702380D01*
X114214285Y-66702380D02*
X114833333Y-66702380D01*
X114500000Y-67083333D01*
X114642857Y-67083333D01*
X114738095Y-67130952D01*
X114785714Y-67178571D01*
X114833333Y-67273809D01*
X114833333Y-67511904D01*
X114785714Y-67607142D01*
X114738095Y-67654761D01*
X114642857Y-67702380D01*
X114357142Y-67702380D01*
X114261904Y-67654761D01*
X114214285Y-67607142D01*
X121666666Y-58654761D02*
X121809523Y-58702380D01*
X122047619Y-58702380D01*
X122142857Y-58654761D01*
X122190476Y-58607142D01*
X122238095Y-58511904D01*
X122238095Y-58416666D01*
X122190476Y-58321428D01*
X122142857Y-58273809D01*
X122047619Y-58226190D01*
X121857142Y-58178571D01*
X121761904Y-58130952D01*
X121714285Y-58083333D01*
X121666666Y-57988095D01*
X121666666Y-57892857D01*
X121714285Y-57797619D01*
X121761904Y-57750000D01*
X121857142Y-57702380D01*
X122095238Y-57702380D01*
X122238095Y-57750000D01*
X122571428Y-57702380D02*
X122809523Y-58702380D01*
X123000000Y-57988095D01*
X123190476Y-58702380D01*
X123428571Y-57702380D01*
X123761904Y-57797619D02*
X123809523Y-57750000D01*
X123904761Y-57702380D01*
X124142857Y-57702380D01*
X124238095Y-57750000D01*
X124285714Y-57797619D01*
X124333333Y-57892857D01*
X124333333Y-57988095D01*
X124285714Y-58130952D01*
X123714285Y-58702380D01*
X124333333Y-58702380D01*
X112166666Y-58654761D02*
X112309523Y-58702380D01*
X112547619Y-58702380D01*
X112642857Y-58654761D01*
X112690476Y-58607142D01*
X112738095Y-58511904D01*
X112738095Y-58416666D01*
X112690476Y-58321428D01*
X112642857Y-58273809D01*
X112547619Y-58226190D01*
X112357142Y-58178571D01*
X112261904Y-58130952D01*
X112214285Y-58083333D01*
X112166666Y-57988095D01*
X112166666Y-57892857D01*
X112214285Y-57797619D01*
X112261904Y-57750000D01*
X112357142Y-57702380D01*
X112595238Y-57702380D01*
X112738095Y-57750000D01*
X113071428Y-57702380D02*
X113309523Y-58702380D01*
X113500000Y-57988095D01*
X113690476Y-58702380D01*
X113928571Y-57702380D01*
X114833333Y-58702380D02*
X114261904Y-58702380D01*
X114547619Y-58702380D02*
X114547619Y-57702380D01*
X114452380Y-57845238D01*
X114357142Y-57940476D01*
X114261904Y-57988095D01*
D15*
X128394009Y-57927763D02*
X128394009Y-58931683D01*
X128327081Y-59132467D01*
X128193225Y-59266323D01*
X127992441Y-59333251D01*
X127858585Y-59333251D01*
X128996361Y-58061619D02*
X129063289Y-57994691D01*
X129197145Y-57927763D01*
X129531785Y-57927763D01*
X129665641Y-57994691D01*
X129732569Y-58061619D01*
X129799497Y-58195475D01*
X129799497Y-58329331D01*
X129732569Y-58530115D01*
X128929433Y-59333251D01*
X129799497Y-59333251D01*
D10*
X133261904Y-91452380D02*
X133261904Y-90452380D01*
X133500000Y-90452380D01*
X133642857Y-90500000D01*
X133738095Y-90595238D01*
X133785714Y-90690476D01*
X133833333Y-90880952D01*
X133833333Y-91023809D01*
X133785714Y-91214285D01*
X133738095Y-91309523D01*
X133642857Y-91404761D01*
X133500000Y-91452380D01*
X133261904Y-91452380D01*
X134404761Y-90880952D02*
X134309523Y-90833333D01*
X134261904Y-90785714D01*
X134214285Y-90690476D01*
X134214285Y-90642857D01*
X134261904Y-90547619D01*
X134309523Y-90500000D01*
X134404761Y-90452380D01*
X134595238Y-90452380D01*
X134690476Y-90500000D01*
X134738095Y-90547619D01*
X134785714Y-90642857D01*
X134785714Y-90690476D01*
X134738095Y-90785714D01*
X134690476Y-90833333D01*
X134595238Y-90880952D01*
X134404761Y-90880952D01*
X134309523Y-90928571D01*
X134261904Y-90976190D01*
X134214285Y-91071428D01*
X134214285Y-91261904D01*
X134261904Y-91357142D01*
X134309523Y-91404761D01*
X134404761Y-91452380D01*
X134595238Y-91452380D01*
X134690476Y-91404761D01*
X134738095Y-91357142D01*
X134785714Y-91261904D01*
X134785714Y-91071428D01*
X134738095Y-90976190D01*
X134690476Y-90928571D01*
X134595238Y-90880952D01*
X133261904Y-86952380D02*
X133261904Y-85952380D01*
X133500000Y-85952380D01*
X133642857Y-86000000D01*
X133738095Y-86095238D01*
X133785714Y-86190476D01*
X133833333Y-86380952D01*
X133833333Y-86523809D01*
X133785714Y-86714285D01*
X133738095Y-86809523D01*
X133642857Y-86904761D01*
X133500000Y-86952380D01*
X133261904Y-86952380D01*
X134166666Y-85952380D02*
X134833333Y-85952380D01*
X134404761Y-86952380D01*
X133261904Y-82452380D02*
X133261904Y-81452380D01*
X133500000Y-81452380D01*
X133642857Y-81500000D01*
X133738095Y-81595238D01*
X133785714Y-81690476D01*
X133833333Y-81880952D01*
X133833333Y-82023809D01*
X133785714Y-82214285D01*
X133738095Y-82309523D01*
X133642857Y-82404761D01*
X133500000Y-82452380D01*
X133261904Y-82452380D01*
X134690476Y-81452380D02*
X134500000Y-81452380D01*
X134404761Y-81500000D01*
X134357142Y-81547619D01*
X134261904Y-81690476D01*
X134214285Y-81880952D01*
X134214285Y-82261904D01*
X134261904Y-82357142D01*
X134309523Y-82404761D01*
X134404761Y-82452380D01*
X134595238Y-82452380D01*
X134690476Y-82404761D01*
X134738095Y-82357142D01*
X134785714Y-82261904D01*
X134785714Y-82023809D01*
X134738095Y-81928571D01*
X134690476Y-81880952D01*
X134595238Y-81833333D01*
X134404761Y-81833333D01*
X134309523Y-81880952D01*
X134261904Y-81928571D01*
X134214285Y-82023809D01*
X133261904Y-77952380D02*
X133261904Y-76952380D01*
X133500000Y-76952380D01*
X133642857Y-77000000D01*
X133738095Y-77095238D01*
X133785714Y-77190476D01*
X133833333Y-77380952D01*
X133833333Y-77523809D01*
X133785714Y-77714285D01*
X133738095Y-77809523D01*
X133642857Y-77904761D01*
X133500000Y-77952380D01*
X133261904Y-77952380D01*
X134738095Y-76952380D02*
X134261904Y-76952380D01*
X134214285Y-77428571D01*
X134261904Y-77380952D01*
X134357142Y-77333333D01*
X134595238Y-77333333D01*
X134690476Y-77380952D01*
X134738095Y-77428571D01*
X134785714Y-77523809D01*
X134785714Y-77761904D01*
X134738095Y-77857142D01*
X134690476Y-77904761D01*
X134595238Y-77952380D01*
X134357142Y-77952380D01*
X134261904Y-77904761D01*
X134214285Y-77857142D01*
X133261904Y-73452380D02*
X133261904Y-72452380D01*
X133500000Y-72452380D01*
X133642857Y-72500000D01*
X133738095Y-72595238D01*
X133785714Y-72690476D01*
X133833333Y-72880952D01*
X133833333Y-73023809D01*
X133785714Y-73214285D01*
X133738095Y-73309523D01*
X133642857Y-73404761D01*
X133500000Y-73452380D01*
X133261904Y-73452380D01*
X134690476Y-72785714D02*
X134690476Y-73452380D01*
X134452380Y-72404761D02*
X134214285Y-73119047D01*
X134833333Y-73119047D01*
X133261904Y-68952380D02*
X133261904Y-67952380D01*
X133500000Y-67952380D01*
X133642857Y-68000000D01*
X133738095Y-68095238D01*
X133785714Y-68190476D01*
X133833333Y-68380952D01*
X133833333Y-68523809D01*
X133785714Y-68714285D01*
X133738095Y-68809523D01*
X133642857Y-68904761D01*
X133500000Y-68952380D01*
X133261904Y-68952380D01*
X134166666Y-67952380D02*
X134785714Y-67952380D01*
X134452380Y-68333333D01*
X134595238Y-68333333D01*
X134690476Y-68380952D01*
X134738095Y-68428571D01*
X134785714Y-68523809D01*
X134785714Y-68761904D01*
X134738095Y-68857142D01*
X134690476Y-68904761D01*
X134595238Y-68952380D01*
X134309523Y-68952380D01*
X134214285Y-68904761D01*
X134166666Y-68857142D01*
X133261904Y-64452380D02*
X133261904Y-63452380D01*
X133500000Y-63452380D01*
X133642857Y-63500000D01*
X133738095Y-63595238D01*
X133785714Y-63690476D01*
X133833333Y-63880952D01*
X133833333Y-64023809D01*
X133785714Y-64214285D01*
X133738095Y-64309523D01*
X133642857Y-64404761D01*
X133500000Y-64452380D01*
X133261904Y-64452380D01*
X134214285Y-63547619D02*
X134261904Y-63500000D01*
X134357142Y-63452380D01*
X134595238Y-63452380D01*
X134690476Y-63500000D01*
X134738095Y-63547619D01*
X134785714Y-63642857D01*
X134785714Y-63738095D01*
X134738095Y-63880952D01*
X134166666Y-64452380D01*
X134785714Y-64452380D01*
X133261904Y-59952380D02*
X133261904Y-58952380D01*
X133500000Y-58952380D01*
X133642857Y-59000000D01*
X133738095Y-59095238D01*
X133785714Y-59190476D01*
X133833333Y-59380952D01*
X133833333Y-59523809D01*
X133785714Y-59714285D01*
X133738095Y-59809523D01*
X133642857Y-59904761D01*
X133500000Y-59952380D01*
X133261904Y-59952380D01*
X134785714Y-59952380D02*
X134214285Y-59952380D01*
X134500000Y-59952380D02*
X134500000Y-58952380D01*
X134404761Y-59095238D01*
X134309523Y-59190476D01*
X134214285Y-59238095D01*
M02*
