M48
; DRILL file {KiCad (5.1.4)-1} date 26/12/2019 17:04:46
; FORMAT={-:-/ absolute / inch / decimal}
; #@! TF.CreationDate,2019-12-26T17:04:46+00:00
; #@! TF.GenerationSoftware,Kicad,Pcbnew,(5.1.4)-1
; #@! TF.FileFunction,Plated,1,2,PTH
FMAT,2
INCH
T1C0.0157
T2C0.0315
T3C0.0350
T4C0.0354
T5C0.0433
T6C0.0551
%
G90
G05
T1
X4.4094Y-2.5787
X4.4291Y-2.9528
X4.4783Y-3.2874
X4.5965Y-2.0571
X4.6752Y-2.0571
X4.7638Y-2.0571
T2
X5.5118Y-3.3268
X5.5118Y-3.6268
X5.3839Y-2.9429
X5.3839Y-3.2429
X5.3839Y-2.5591
X5.3839Y-2.8591
X5.5118Y-2.1752
X5.5118Y-2.4752
X5.5118Y-2.9429
X5.5118Y-3.2429
X5.3839Y-3.3268
X5.3839Y-3.6268
X5.5118Y-2.5591
X5.5118Y-2.8591
X5.3839Y-2.1752
X5.3839Y-2.4752
T3
X4.5146Y-1.939
X4.5547Y-2.0091
X4.5949Y-1.939
X4.635Y-2.0091
X4.6752Y-1.939
X4.7154Y-2.0091
X4.7555Y-1.939
X4.7957Y-2.0091
T4
X5.087Y-3.0512
X5.187Y-3.0512
X5.087Y-2.5197
X5.187Y-2.5197
X5.087Y-2.874
X5.187Y-2.874
X5.087Y-2.3425
X5.187Y-2.3425
X5.087Y-2.6969
X5.187Y-2.6969
X5.087Y-3.5827
X5.187Y-3.5827
X5.087Y-3.2283
X5.187Y-3.2283
X5.087Y-3.4055
X5.187Y-3.4055
T5
X4.7146Y-2.372
X4.7146Y-2.5492
X4.9705Y-2.372
X4.9705Y-2.5492
X4.7146Y-3.435
X4.7146Y-3.6122
X4.9705Y-3.435
X4.9705Y-3.6122
X4.3406Y-3.0807
X4.3406Y-3.2579
X4.5965Y-3.0807
X4.5965Y-3.2579
X4.3406Y-3.435
X4.3406Y-3.6122
X4.5965Y-3.435
X4.5965Y-3.6122
X4.3406Y-2.372
X4.3406Y-2.5492
X4.5965Y-2.372
X4.5965Y-2.5492
X4.7146Y-3.0807
X4.7146Y-3.2579
X4.9705Y-3.0807
X4.9705Y-3.2579
X4.3406Y-2.7264
X4.3406Y-2.9035
X4.5965Y-2.7264
X4.5965Y-2.9035
X4.7146Y-2.7264
X4.7146Y-2.9035
X4.9705Y-2.7264
X4.9705Y-2.9035
T6
X5.0984Y-1.9654
X5.0984Y-2.1654
T0
M30
