M48
; DRILL file {KiCad (5.1.4)-1} date 04/01/2020 22:54:06
; FORMAT={-:-/ absolute / inch / decimal}
; #@! TF.CreationDate,2020-01-04T22:54:06+00:00
; #@! TF.GenerationSoftware,Kicad,Pcbnew,(5.1.4)-1
; #@! TF.FileFunction,Plated,1,2,PTH
FMAT,2
INCH
T1C0.0157
T2C0.0315
T3C0.0350
T4C0.0354
T5C0.0394
T6C0.0433
%
G90
G05
T1
X4.3406Y-1.8898
X4.4311Y-1.8898
X4.4882Y-1.8406
T2
X4.345Y-2.5448
X4.5571Y-2.3327
X4.345Y-2.3775
X4.5571Y-2.1654
X4.3504Y-3.376
X4.5625Y-3.1639
X4.345Y-2.8795
X4.5571Y-2.6673
X4.3406Y-2.2146
X4.5527Y-2.0024
X3.2579Y-1.6783
X3.2579Y-1.9783
X4.345Y-3.2141
X4.5571Y-3.002
X4.345Y-2.7121
X4.5571Y-2.5
X4.345Y-3.0468
X4.5571Y-2.8346
T3
X4.1209Y-1.6157
X4.161Y-1.6858
X4.2012Y-1.6157
X4.2413Y-1.6858
X4.2815Y-1.6157
X4.3217Y-1.6858
X4.3618Y-1.6157
X4.402Y-1.6858
T4
X3.3843Y-3.3563
X3.4843Y-3.3563
X3.3843Y-3.002
X3.4843Y-3.002
X3.3843Y-2.4705
X3.4843Y-2.4705
X3.3843Y-2.2933
X3.4843Y-2.2933
X3.3843Y-2.1161
X3.4843Y-2.1161
X3.3843Y-2.8248
X3.4843Y-2.8248
X3.3843Y-2.6476
X3.4843Y-2.6476
X3.3843Y-3.1791
X3.4843Y-3.1791
T6
X3.5925Y-2.1161
X3.5925Y-2.2933
X3.8484Y-2.1161
X3.8484Y-2.2933
X3.9665Y-2.8248
X3.9665Y-3.002
X4.2224Y-2.8248
X4.2224Y-3.002
X3.5925Y-2.8248
X3.5925Y-3.002
X3.8484Y-2.8248
X3.8484Y-3.002
X3.9665Y-3.1791
X3.9665Y-3.3563
X4.2224Y-3.1791
X4.2224Y-3.3563
X3.5925Y-2.4705
X3.5925Y-2.6476
X3.8484Y-2.4705
X3.8484Y-2.6476
X3.9665Y-2.1161
X3.9665Y-2.2933
X4.2224Y-2.1161
X4.2224Y-2.2933
X3.9665Y-2.4705
X3.9665Y-2.6476
X4.2224Y-2.4705
X4.2224Y-2.6476
X3.5925Y-3.1791
X3.5925Y-3.3563
X3.8484Y-3.1791
X3.8484Y-3.3563
T5
G00X3.4272Y-1.7028
M15
G01X3.4272Y-1.7815
M16
G05
G00X3.6516Y-1.624
M15
G01X3.5728Y-1.624
M16
G05
G00X3.6516Y-1.8602
M15
G01X3.5728Y-1.8602
M16
G05
T0
M30
