G04 #@! TF.GenerationSoftware,KiCad,Pcbnew,(5.1.4)-1*
G04 #@! TF.CreationDate,2019-12-26T17:04:43+00:00*
G04 #@! TF.ProjectId,SPS-SN2-IOTester,5350532d-534e-4322-9d49-4f5465737465,rev?*
G04 #@! TF.SameCoordinates,Original*
G04 #@! TF.FileFunction,Copper,L1,Top*
G04 #@! TF.FilePolarity,Positive*
%FSLAX46Y46*%
G04 Gerber Fmt 4.6, Leading zero omitted, Abs format (unit mm)*
G04 Created by KiCad (PCBNEW (5.1.4)-1) date 2019-12-26 17:04:43*
%MOMM*%
%LPD*%
G04 APERTURE LIST*
%ADD10R,1.398000X1.398000*%
%ADD11C,1.398000*%
%ADD12O,1.600000X1.600000*%
%ADD13C,1.600000*%
%ADD14C,2.000000*%
%ADD15C,2.100000*%
%ADD16R,2.100000X2.100000*%
%ADD17C,1.800000*%
%ADD18R,1.800000X1.800000*%
%ADD19C,0.800000*%
%ADD20C,0.250000*%
G04 APERTURE END LIST*
D10*
X114670000Y-49250000D03*
D11*
X115690000Y-51030000D03*
X116710000Y-49250000D03*
X117730000Y-51030000D03*
X118750000Y-49250000D03*
X119770000Y-51030000D03*
X120790000Y-49250000D03*
X121810000Y-51030000D03*
D12*
X140000000Y-84500000D03*
D13*
X140000000Y-92120000D03*
D12*
X136750000Y-84500000D03*
D13*
X136750000Y-92120000D03*
D12*
X140000000Y-74750000D03*
D13*
X140000000Y-82370000D03*
D12*
X136750000Y-74750000D03*
D13*
X136750000Y-82370000D03*
D12*
X140000000Y-65000000D03*
D13*
X140000000Y-72620000D03*
D12*
X136750000Y-65000000D03*
D13*
X136750000Y-72620000D03*
D12*
X140000000Y-55250000D03*
D13*
X140000000Y-62870000D03*
D12*
X136750000Y-55250000D03*
D13*
X136750000Y-62870000D03*
D14*
X126250000Y-87250000D03*
X126250000Y-91750000D03*
X119750000Y-87250000D03*
X119750000Y-91750000D03*
X116750000Y-87250000D03*
X116750000Y-91750000D03*
X110250000Y-87250000D03*
X110250000Y-91750000D03*
X126250000Y-78250000D03*
X126250000Y-82750000D03*
X119750000Y-78250000D03*
X119750000Y-82750000D03*
X116750000Y-78250000D03*
X116750000Y-82750000D03*
X110250000Y-78250000D03*
X110250000Y-82750000D03*
X126250000Y-69250000D03*
X126250000Y-73750000D03*
X119750000Y-69250000D03*
X119750000Y-73750000D03*
X116750000Y-69250000D03*
X116750000Y-73750000D03*
X110250000Y-69250000D03*
X110250000Y-73750000D03*
X126250000Y-60250000D03*
X126250000Y-64750000D03*
X119750000Y-60250000D03*
X119750000Y-64750000D03*
X116750000Y-60250000D03*
X116750000Y-64750000D03*
X110250000Y-60250000D03*
X110250000Y-64750000D03*
D15*
X129500000Y-49920000D03*
D16*
X129500000Y-55000000D03*
D17*
X131750000Y-91000000D03*
D18*
X129210000Y-91000000D03*
D17*
X131750000Y-86500000D03*
D18*
X129210000Y-86500000D03*
D17*
X131750000Y-82000000D03*
D18*
X129210000Y-82000000D03*
D17*
X131750000Y-77500000D03*
D18*
X129210000Y-77500000D03*
D17*
X131750000Y-73000000D03*
D18*
X129210000Y-73000000D03*
D17*
X131750000Y-68500000D03*
D18*
X129210000Y-68500000D03*
D17*
X131750000Y-64000000D03*
D18*
X129210000Y-64000000D03*
D17*
X131750000Y-59500000D03*
D18*
X129210000Y-59500000D03*
D19*
X112000000Y-65500000D03*
X116750000Y-52250000D03*
X112500000Y-75000000D03*
X118750000Y-52250000D03*
X113750000Y-83500000D03*
X121000000Y-52250000D03*
D20*
X114670000Y-49250000D02*
X114500000Y-49250000D01*
X135618630Y-55250000D02*
X136750000Y-55250000D01*
X132310000Y-55250000D02*
X135618630Y-55250000D01*
X129210000Y-58350000D02*
X132310000Y-55250000D01*
X129210000Y-59500000D02*
X129210000Y-58350000D01*
X129210000Y-62850000D02*
X130560000Y-61500000D01*
X129210000Y-64000000D02*
X129210000Y-62850000D01*
X133750000Y-61500000D02*
X140000000Y-55250000D01*
X130560000Y-61500000D02*
X133750000Y-61500000D01*
X129210000Y-67350000D02*
X130060000Y-66500000D01*
X129210000Y-68500000D02*
X129210000Y-67350000D01*
X135250000Y-66500000D02*
X136750000Y-65000000D01*
X130060000Y-66500000D02*
X135250000Y-66500000D01*
X139200001Y-65799999D02*
X140000000Y-65000000D01*
X137250000Y-67750000D02*
X139200001Y-65799999D01*
X134460000Y-67750000D02*
X137250000Y-67750000D01*
X129210000Y-73000000D02*
X134460000Y-67750000D01*
X135618630Y-74750000D02*
X136750000Y-74750000D01*
X130810000Y-74750000D02*
X135618630Y-74750000D01*
X129210000Y-76350000D02*
X130810000Y-74750000D01*
X129210000Y-77500000D02*
X129210000Y-76350000D01*
X139200001Y-75549999D02*
X140000000Y-74750000D01*
X138250000Y-76500000D02*
X139200001Y-75549999D01*
X134710000Y-76500000D02*
X138250000Y-76500000D01*
X129210000Y-82000000D02*
X134710000Y-76500000D01*
X135618630Y-84500000D02*
X136750000Y-84500000D01*
X130060000Y-84500000D02*
X135618630Y-84500000D01*
X129210000Y-85350000D02*
X130060000Y-84500000D01*
X129210000Y-86500000D02*
X129210000Y-85350000D01*
X139200001Y-85299999D02*
X140000000Y-84500000D01*
X137000000Y-87500000D02*
X139200001Y-85299999D01*
X132710000Y-87500000D02*
X137000000Y-87500000D01*
X129210000Y-91000000D02*
X132710000Y-87500000D01*
X130250000Y-61000000D02*
X128750000Y-61000000D01*
X131750000Y-59500000D02*
X130250000Y-61000000D01*
X128750000Y-61000000D02*
X127250000Y-62500000D01*
X119000000Y-62500000D02*
X116750000Y-64750000D01*
X127250000Y-62500000D02*
X119000000Y-62500000D01*
X112099930Y-62900070D02*
X110250000Y-64750000D01*
X112099930Y-52769070D02*
X112099930Y-62900070D01*
X114670000Y-49250000D02*
X114670000Y-50199000D01*
X114670000Y-50199000D02*
X112099930Y-52769070D01*
X127249999Y-65749999D02*
X126250000Y-64750000D01*
X130000001Y-65749999D02*
X127249999Y-65749999D01*
X131750000Y-64000000D02*
X130000001Y-65749999D01*
X112549940Y-54170060D02*
X112549940Y-64950060D01*
X115690000Y-51030000D02*
X112549940Y-54170060D01*
X112549940Y-64950060D02*
X112000000Y-65500000D01*
X131750000Y-68500000D02*
X129000000Y-71250000D01*
X119250000Y-71250000D02*
X116750000Y-73750000D01*
X129000000Y-71250000D02*
X119250000Y-71250000D01*
X112999950Y-71000050D02*
X110250000Y-73750000D01*
X112999950Y-55434365D02*
X112999950Y-71000050D01*
X116750000Y-52250000D02*
X116184315Y-52250000D01*
X116184315Y-52250000D02*
X112999950Y-55434365D01*
X127249999Y-74749999D02*
X126250000Y-73750000D01*
X130000001Y-74749999D02*
X127249999Y-74749999D01*
X131750000Y-73000000D02*
X130000001Y-74749999D01*
X117730000Y-52633590D02*
X113449960Y-56913630D01*
X117730000Y-51030000D02*
X117730000Y-52633590D01*
X113449960Y-56913630D02*
X113449960Y-74000000D01*
X113449960Y-74000000D02*
X113449960Y-74050040D01*
X113449960Y-74050040D02*
X112500000Y-75000000D01*
X119500000Y-80000000D02*
X116750000Y-82750000D01*
X131750000Y-77500000D02*
X129250000Y-80000000D01*
X129250000Y-80000000D02*
X119500000Y-80000000D01*
X111249999Y-81750001D02*
X110250000Y-82750000D01*
X113899970Y-79100030D02*
X111249999Y-81750001D01*
X113899970Y-57100030D02*
X113899970Y-79100030D01*
X118750000Y-52250000D02*
X113899970Y-57100030D01*
X127249999Y-83749999D02*
X126250000Y-82750000D01*
X130000000Y-83750000D02*
X127249999Y-83749999D01*
X131750000Y-82000000D02*
X130000000Y-83750000D01*
X114349980Y-57723022D02*
X114349980Y-58263610D01*
X119770000Y-51030000D02*
X119770000Y-52303002D01*
X119770000Y-52303002D02*
X114349980Y-57723022D01*
X114349980Y-58263610D02*
X114349980Y-82750000D01*
X114349980Y-82750000D02*
X114349980Y-82900020D01*
X114349980Y-82900020D02*
X113750000Y-83500000D01*
X117749999Y-90750001D02*
X116750000Y-91750000D01*
X119250000Y-89250000D02*
X117749999Y-90750001D01*
X129000000Y-89250000D02*
X119250000Y-89250000D01*
X131750000Y-86500000D02*
X129000000Y-89250000D01*
X111249999Y-90750001D02*
X110250000Y-91750000D01*
X114799990Y-87200010D02*
X111249999Y-90750001D01*
X114799990Y-58450010D02*
X114799990Y-87200010D01*
X121000000Y-52250000D02*
X114799990Y-58450010D01*
X131750000Y-91000000D02*
X131750000Y-91750000D01*
X127249999Y-92749999D02*
X126250000Y-91750000D01*
X130750001Y-92749999D02*
X127249999Y-92749999D01*
X131750000Y-91750000D02*
X130750001Y-92749999D01*
X118424999Y-93075001D02*
X118750001Y-92749999D01*
X116113999Y-93075001D02*
X118424999Y-93075001D01*
X118750001Y-92749999D02*
X119750000Y-91750000D01*
X115250000Y-92211002D02*
X116113999Y-93075001D01*
X115250000Y-58750000D02*
X115250000Y-92211002D01*
X121810000Y-51030000D02*
X121810000Y-56940000D01*
X121810000Y-56940000D02*
X120750000Y-58000000D01*
X120750000Y-58000000D02*
X116000000Y-58000000D01*
X116000000Y-58000000D02*
X115250000Y-58750000D01*
M02*
