G04 #@! TF.GenerationSoftware,KiCad,Pcbnew,(5.1.4)-1*
G04 #@! TF.CreationDate,2020-01-04T22:54:04+00:00*
G04 #@! TF.ProjectId,SPS-SN2-IOTester,5350532d-534e-4322-9d49-4f5465737465,1*
G04 #@! TF.SameCoordinates,Original*
G04 #@! TF.FileFunction,Soldermask,Bot*
G04 #@! TF.FilePolarity,Negative*
%FSLAX46Y46*%
G04 Gerber Fmt 4.6, Leading zero omitted, Abs format (unit mm)*
G04 Created by KiCad (PCBNEW (5.1.4)-1) date 2020-01-04 22:54:04*
%MOMM*%
%LPD*%
G04 APERTURE LIST*
%ADD10C,0.100000*%
G04 APERTURE END LIST*
D10*
G36*
X115474549Y-85621116D02*
G01*
X115585734Y-85643232D01*
X115795203Y-85729997D01*
X115983720Y-85855960D01*
X116144040Y-86016280D01*
X116270003Y-86204797D01*
X116356768Y-86414266D01*
X116401000Y-86636636D01*
X116401000Y-86863364D01*
X116356768Y-87085734D01*
X116270003Y-87295203D01*
X116144040Y-87483720D01*
X115983720Y-87644040D01*
X115795203Y-87770003D01*
X115585734Y-87856768D01*
X115474549Y-87878884D01*
X115363365Y-87901000D01*
X115136635Y-87901000D01*
X115025451Y-87878884D01*
X114914266Y-87856768D01*
X114704797Y-87770003D01*
X114516280Y-87644040D01*
X114355960Y-87483720D01*
X114229997Y-87295203D01*
X114143232Y-87085734D01*
X114099000Y-86863364D01*
X114099000Y-86636636D01*
X114143232Y-86414266D01*
X114229997Y-86204797D01*
X114355960Y-86016280D01*
X114516280Y-85855960D01*
X114704797Y-85729997D01*
X114914266Y-85643232D01*
X115025451Y-85621116D01*
X115136635Y-85599000D01*
X115363365Y-85599000D01*
X115474549Y-85621116D01*
X115474549Y-85621116D01*
G37*
G36*
X110748228Y-84931703D02*
G01*
X110903100Y-84995853D01*
X111042481Y-85088985D01*
X111161015Y-85207519D01*
X111254147Y-85346900D01*
X111318297Y-85501772D01*
X111351000Y-85666184D01*
X111351000Y-85833816D01*
X111318297Y-85998228D01*
X111254147Y-86153100D01*
X111161015Y-86292481D01*
X111042481Y-86411015D01*
X110903100Y-86504147D01*
X110748228Y-86568297D01*
X110583816Y-86601000D01*
X110416184Y-86601000D01*
X110251772Y-86568297D01*
X110096900Y-86504147D01*
X109957519Y-86411015D01*
X109838985Y-86292481D01*
X109745853Y-86153100D01*
X109681703Y-85998228D01*
X109649000Y-85833816D01*
X109649000Y-85666184D01*
X109681703Y-85501772D01*
X109745853Y-85346900D01*
X109838985Y-85207519D01*
X109957519Y-85088985D01*
X110096900Y-84995853D01*
X110251772Y-84931703D01*
X110416184Y-84899000D01*
X110583816Y-84899000D01*
X110748228Y-84931703D01*
X110748228Y-84931703D01*
G37*
G36*
X101056564Y-84239389D02*
G01*
X101247833Y-84318615D01*
X101247835Y-84318616D01*
X101273174Y-84335547D01*
X101419973Y-84433635D01*
X101566365Y-84580027D01*
X101681385Y-84752167D01*
X101760611Y-84943436D01*
X101801000Y-85146484D01*
X101801000Y-85353516D01*
X101760611Y-85556564D01*
X101688773Y-85729996D01*
X101681384Y-85747835D01*
X101566365Y-85919973D01*
X101419973Y-86066365D01*
X101247835Y-86181384D01*
X101247834Y-86181385D01*
X101247833Y-86181385D01*
X101056564Y-86260611D01*
X100853516Y-86301000D01*
X100646484Y-86301000D01*
X100443436Y-86260611D01*
X100252167Y-86181385D01*
X100252166Y-86181385D01*
X100252165Y-86181384D01*
X100080027Y-86066365D01*
X99933635Y-85919973D01*
X99818616Y-85747835D01*
X99811227Y-85729996D01*
X99739389Y-85556564D01*
X99699000Y-85353516D01*
X99699000Y-85146484D01*
X99739389Y-84943436D01*
X99818615Y-84752167D01*
X99933635Y-84580027D01*
X100080027Y-84433635D01*
X100226826Y-84335547D01*
X100252165Y-84318616D01*
X100252167Y-84318615D01*
X100443436Y-84239389D01*
X100646484Y-84199000D01*
X100853516Y-84199000D01*
X101056564Y-84239389D01*
X101056564Y-84239389D01*
G37*
G36*
X91556564Y-84239389D02*
G01*
X91747833Y-84318615D01*
X91747835Y-84318616D01*
X91773174Y-84335547D01*
X91919973Y-84433635D01*
X92066365Y-84580027D01*
X92181385Y-84752167D01*
X92260611Y-84943436D01*
X92301000Y-85146484D01*
X92301000Y-85353516D01*
X92260611Y-85556564D01*
X92188773Y-85729996D01*
X92181384Y-85747835D01*
X92066365Y-85919973D01*
X91919973Y-86066365D01*
X91747835Y-86181384D01*
X91747834Y-86181385D01*
X91747833Y-86181385D01*
X91556564Y-86260611D01*
X91353516Y-86301000D01*
X91146484Y-86301000D01*
X90943436Y-86260611D01*
X90752167Y-86181385D01*
X90752166Y-86181385D01*
X90752165Y-86181384D01*
X90580027Y-86066365D01*
X90433635Y-85919973D01*
X90318616Y-85747835D01*
X90311227Y-85729996D01*
X90239389Y-85556564D01*
X90199000Y-85353516D01*
X90199000Y-85146484D01*
X90239389Y-84943436D01*
X90318615Y-84752167D01*
X90433635Y-84580027D01*
X90580027Y-84433635D01*
X90726826Y-84335547D01*
X90752165Y-84318616D01*
X90752167Y-84318615D01*
X90943436Y-84239389D01*
X91146484Y-84199000D01*
X91353516Y-84199000D01*
X91556564Y-84239389D01*
X91556564Y-84239389D01*
G37*
G36*
X107556564Y-84239389D02*
G01*
X107747833Y-84318615D01*
X107747835Y-84318616D01*
X107773174Y-84335547D01*
X107919973Y-84433635D01*
X108066365Y-84580027D01*
X108181385Y-84752167D01*
X108260611Y-84943436D01*
X108301000Y-85146484D01*
X108301000Y-85353516D01*
X108260611Y-85556564D01*
X108188773Y-85729996D01*
X108181384Y-85747835D01*
X108066365Y-85919973D01*
X107919973Y-86066365D01*
X107747835Y-86181384D01*
X107747834Y-86181385D01*
X107747833Y-86181385D01*
X107556564Y-86260611D01*
X107353516Y-86301000D01*
X107146484Y-86301000D01*
X106943436Y-86260611D01*
X106752167Y-86181385D01*
X106752166Y-86181385D01*
X106752165Y-86181384D01*
X106580027Y-86066365D01*
X106433635Y-85919973D01*
X106318616Y-85747835D01*
X106311227Y-85729996D01*
X106239389Y-85556564D01*
X106199000Y-85353516D01*
X106199000Y-85146484D01*
X106239389Y-84943436D01*
X106318615Y-84752167D01*
X106433635Y-84580027D01*
X106580027Y-84433635D01*
X106726826Y-84335547D01*
X106752165Y-84318616D01*
X106752167Y-84318615D01*
X106943436Y-84239389D01*
X107146484Y-84199000D01*
X107353516Y-84199000D01*
X107556564Y-84239389D01*
X107556564Y-84239389D01*
G37*
G36*
X98056564Y-84239389D02*
G01*
X98247833Y-84318615D01*
X98247835Y-84318616D01*
X98273174Y-84335547D01*
X98419973Y-84433635D01*
X98566365Y-84580027D01*
X98681385Y-84752167D01*
X98760611Y-84943436D01*
X98801000Y-85146484D01*
X98801000Y-85353516D01*
X98760611Y-85556564D01*
X98688773Y-85729996D01*
X98681384Y-85747835D01*
X98566365Y-85919973D01*
X98419973Y-86066365D01*
X98247835Y-86181384D01*
X98247834Y-86181385D01*
X98247833Y-86181385D01*
X98056564Y-86260611D01*
X97853516Y-86301000D01*
X97646484Y-86301000D01*
X97443436Y-86260611D01*
X97252167Y-86181385D01*
X97252166Y-86181385D01*
X97252165Y-86181384D01*
X97080027Y-86066365D01*
X96933635Y-85919973D01*
X96818616Y-85747835D01*
X96811227Y-85729996D01*
X96739389Y-85556564D01*
X96699000Y-85353516D01*
X96699000Y-85146484D01*
X96739389Y-84943436D01*
X96818615Y-84752167D01*
X96933635Y-84580027D01*
X97080027Y-84433635D01*
X97226826Y-84335547D01*
X97252165Y-84318616D01*
X97252167Y-84318615D01*
X97443436Y-84239389D01*
X97646484Y-84199000D01*
X97853516Y-84199000D01*
X98056564Y-84239389D01*
X98056564Y-84239389D01*
G37*
G36*
X88777395Y-84335546D02*
G01*
X88950466Y-84407234D01*
X88950467Y-84407235D01*
X89106227Y-84511310D01*
X89238690Y-84643773D01*
X89238691Y-84643775D01*
X89342766Y-84799534D01*
X89414454Y-84972605D01*
X89451000Y-85156333D01*
X89451000Y-85343667D01*
X89414454Y-85527395D01*
X89342766Y-85700466D01*
X89323034Y-85729997D01*
X89238690Y-85856227D01*
X89106227Y-85988690D01*
X89064935Y-86016280D01*
X88950466Y-86092766D01*
X88777395Y-86164454D01*
X88593667Y-86201000D01*
X88406333Y-86201000D01*
X88222605Y-86164454D01*
X88049534Y-86092766D01*
X87935065Y-86016280D01*
X87893773Y-85988690D01*
X87761310Y-85856227D01*
X87676966Y-85729997D01*
X87657234Y-85700466D01*
X87585546Y-85527395D01*
X87549000Y-85343667D01*
X87549000Y-85156333D01*
X87585546Y-84972605D01*
X87657234Y-84799534D01*
X87761309Y-84643775D01*
X87761310Y-84643773D01*
X87893773Y-84511310D01*
X88049533Y-84407235D01*
X88049534Y-84407234D01*
X88222605Y-84335546D01*
X88406333Y-84299000D01*
X88593667Y-84299000D01*
X88777395Y-84335546D01*
X88777395Y-84335546D01*
G37*
G36*
X86911000Y-86201000D02*
G01*
X85009000Y-86201000D01*
X85009000Y-84299000D01*
X86911000Y-84299000D01*
X86911000Y-86201000D01*
X86911000Y-86201000D01*
G37*
G36*
X110610074Y-80819857D02*
G01*
X110764946Y-80884007D01*
X110904327Y-80977139D01*
X111022861Y-81095673D01*
X111115993Y-81235054D01*
X111180143Y-81389926D01*
X111212846Y-81554338D01*
X111212846Y-81721970D01*
X111180143Y-81886382D01*
X111115993Y-82041254D01*
X111022861Y-82180635D01*
X110904327Y-82299169D01*
X110764946Y-82392301D01*
X110610074Y-82456451D01*
X110445662Y-82489154D01*
X110278030Y-82489154D01*
X110113618Y-82456451D01*
X109958746Y-82392301D01*
X109819365Y-82299169D01*
X109700831Y-82180635D01*
X109607699Y-82041254D01*
X109543549Y-81886382D01*
X109510846Y-81721970D01*
X109510846Y-81554338D01*
X109543549Y-81389926D01*
X109607699Y-81235054D01*
X109700831Y-81095673D01*
X109819365Y-80977139D01*
X109958746Y-80884007D01*
X110113618Y-80819857D01*
X110278030Y-80787154D01*
X110445662Y-80787154D01*
X110610074Y-80819857D01*
X110610074Y-80819857D01*
G37*
G36*
X107556564Y-79739389D02*
G01*
X107747833Y-79818615D01*
X107747835Y-79818616D01*
X107919973Y-79933635D01*
X108066365Y-80080027D01*
X108143202Y-80195021D01*
X108181385Y-80252167D01*
X108260611Y-80443436D01*
X108301000Y-80646484D01*
X108301000Y-80853516D01*
X108260611Y-81056564D01*
X108200977Y-81200533D01*
X108181384Y-81247835D01*
X108066365Y-81419973D01*
X107919973Y-81566365D01*
X107747835Y-81681384D01*
X107747834Y-81681385D01*
X107747833Y-81681385D01*
X107556564Y-81760611D01*
X107353516Y-81801000D01*
X107146484Y-81801000D01*
X106943436Y-81760611D01*
X106752167Y-81681385D01*
X106752166Y-81681385D01*
X106752165Y-81681384D01*
X106580027Y-81566365D01*
X106433635Y-81419973D01*
X106318616Y-81247835D01*
X106299023Y-81200533D01*
X106239389Y-81056564D01*
X106199000Y-80853516D01*
X106199000Y-80646484D01*
X106239389Y-80443436D01*
X106318615Y-80252167D01*
X106356799Y-80195021D01*
X106433635Y-80080027D01*
X106580027Y-79933635D01*
X106752165Y-79818616D01*
X106752167Y-79818615D01*
X106943436Y-79739389D01*
X107146484Y-79699000D01*
X107353516Y-79699000D01*
X107556564Y-79739389D01*
X107556564Y-79739389D01*
G37*
G36*
X101056564Y-79739389D02*
G01*
X101247833Y-79818615D01*
X101247835Y-79818616D01*
X101419973Y-79933635D01*
X101566365Y-80080027D01*
X101643202Y-80195021D01*
X101681385Y-80252167D01*
X101760611Y-80443436D01*
X101801000Y-80646484D01*
X101801000Y-80853516D01*
X101760611Y-81056564D01*
X101700977Y-81200533D01*
X101681384Y-81247835D01*
X101566365Y-81419973D01*
X101419973Y-81566365D01*
X101247835Y-81681384D01*
X101247834Y-81681385D01*
X101247833Y-81681385D01*
X101056564Y-81760611D01*
X100853516Y-81801000D01*
X100646484Y-81801000D01*
X100443436Y-81760611D01*
X100252167Y-81681385D01*
X100252166Y-81681385D01*
X100252165Y-81681384D01*
X100080027Y-81566365D01*
X99933635Y-81419973D01*
X99818616Y-81247835D01*
X99799023Y-81200533D01*
X99739389Y-81056564D01*
X99699000Y-80853516D01*
X99699000Y-80646484D01*
X99739389Y-80443436D01*
X99818615Y-80252167D01*
X99856799Y-80195021D01*
X99933635Y-80080027D01*
X100080027Y-79933635D01*
X100252165Y-79818616D01*
X100252167Y-79818615D01*
X100443436Y-79739389D01*
X100646484Y-79699000D01*
X100853516Y-79699000D01*
X101056564Y-79739389D01*
X101056564Y-79739389D01*
G37*
G36*
X91556564Y-79739389D02*
G01*
X91747833Y-79818615D01*
X91747835Y-79818616D01*
X91919973Y-79933635D01*
X92066365Y-80080027D01*
X92143202Y-80195021D01*
X92181385Y-80252167D01*
X92260611Y-80443436D01*
X92301000Y-80646484D01*
X92301000Y-80853516D01*
X92260611Y-81056564D01*
X92200977Y-81200533D01*
X92181384Y-81247835D01*
X92066365Y-81419973D01*
X91919973Y-81566365D01*
X91747835Y-81681384D01*
X91747834Y-81681385D01*
X91747833Y-81681385D01*
X91556564Y-81760611D01*
X91353516Y-81801000D01*
X91146484Y-81801000D01*
X90943436Y-81760611D01*
X90752167Y-81681385D01*
X90752166Y-81681385D01*
X90752165Y-81681384D01*
X90580027Y-81566365D01*
X90433635Y-81419973D01*
X90318616Y-81247835D01*
X90299023Y-81200533D01*
X90239389Y-81056564D01*
X90199000Y-80853516D01*
X90199000Y-80646484D01*
X90239389Y-80443436D01*
X90318615Y-80252167D01*
X90356799Y-80195021D01*
X90433635Y-80080027D01*
X90580027Y-79933635D01*
X90752165Y-79818616D01*
X90752167Y-79818615D01*
X90943436Y-79739389D01*
X91146484Y-79699000D01*
X91353516Y-79699000D01*
X91556564Y-79739389D01*
X91556564Y-79739389D01*
G37*
G36*
X98056564Y-79739389D02*
G01*
X98247833Y-79818615D01*
X98247835Y-79818616D01*
X98419973Y-79933635D01*
X98566365Y-80080027D01*
X98643202Y-80195021D01*
X98681385Y-80252167D01*
X98760611Y-80443436D01*
X98801000Y-80646484D01*
X98801000Y-80853516D01*
X98760611Y-81056564D01*
X98700977Y-81200533D01*
X98681384Y-81247835D01*
X98566365Y-81419973D01*
X98419973Y-81566365D01*
X98247835Y-81681384D01*
X98247834Y-81681385D01*
X98247833Y-81681385D01*
X98056564Y-81760611D01*
X97853516Y-81801000D01*
X97646484Y-81801000D01*
X97443436Y-81760611D01*
X97252167Y-81681385D01*
X97252166Y-81681385D01*
X97252165Y-81681384D01*
X97080027Y-81566365D01*
X96933635Y-81419973D01*
X96818616Y-81247835D01*
X96799023Y-81200533D01*
X96739389Y-81056564D01*
X96699000Y-80853516D01*
X96699000Y-80646484D01*
X96739389Y-80443436D01*
X96818615Y-80252167D01*
X96856799Y-80195021D01*
X96933635Y-80080027D01*
X97080027Y-79933635D01*
X97252165Y-79818616D01*
X97252167Y-79818615D01*
X97443436Y-79739389D01*
X97646484Y-79699000D01*
X97853516Y-79699000D01*
X98056564Y-79739389D01*
X98056564Y-79739389D01*
G37*
G36*
X86911000Y-81701000D02*
G01*
X85009000Y-81701000D01*
X85009000Y-79799000D01*
X86911000Y-79799000D01*
X86911000Y-81701000D01*
X86911000Y-81701000D01*
G37*
G36*
X88777395Y-79835546D02*
G01*
X88950466Y-79907234D01*
X88950467Y-79907235D01*
X89106227Y-80011310D01*
X89238690Y-80143773D01*
X89238691Y-80143775D01*
X89342766Y-80299534D01*
X89414454Y-80472605D01*
X89451000Y-80656333D01*
X89451000Y-80843667D01*
X89414454Y-81027395D01*
X89342766Y-81200466D01*
X89342765Y-81200467D01*
X89238690Y-81356227D01*
X89106227Y-81488690D01*
X89027818Y-81541081D01*
X88950466Y-81592766D01*
X88777395Y-81664454D01*
X88593667Y-81701000D01*
X88406333Y-81701000D01*
X88222605Y-81664454D01*
X88049534Y-81592766D01*
X87972182Y-81541081D01*
X87893773Y-81488690D01*
X87761310Y-81356227D01*
X87657235Y-81200467D01*
X87657234Y-81200466D01*
X87585546Y-81027395D01*
X87549000Y-80843667D01*
X87549000Y-80656333D01*
X87585546Y-80472605D01*
X87657234Y-80299534D01*
X87761309Y-80143775D01*
X87761310Y-80143773D01*
X87893773Y-80011310D01*
X88049533Y-79907235D01*
X88049534Y-79907234D01*
X88222605Y-79835546D01*
X88406333Y-79799000D01*
X88593667Y-79799000D01*
X88777395Y-79835546D01*
X88777395Y-79835546D01*
G37*
G36*
X116054977Y-79523159D02*
G01*
X116215396Y-79571822D01*
X116348060Y-79642732D01*
X116363232Y-79650842D01*
X116492813Y-79757187D01*
X116599158Y-79886768D01*
X116599159Y-79886770D01*
X116678178Y-80034604D01*
X116726841Y-80195023D01*
X116743271Y-80361846D01*
X116726841Y-80528669D01*
X116678178Y-80689088D01*
X116608280Y-80819857D01*
X116599158Y-80836924D01*
X116492813Y-80966505D01*
X116363232Y-81072850D01*
X116363230Y-81072851D01*
X116215396Y-81151870D01*
X116054977Y-81200533D01*
X115929958Y-81212846D01*
X115846350Y-81212846D01*
X115721331Y-81200533D01*
X115560912Y-81151870D01*
X115413078Y-81072851D01*
X115413076Y-81072850D01*
X115283495Y-80966505D01*
X115177150Y-80836924D01*
X115168028Y-80819857D01*
X115098130Y-80689088D01*
X115049467Y-80528669D01*
X115033037Y-80361846D01*
X115049467Y-80195023D01*
X115098130Y-80034604D01*
X115177149Y-79886770D01*
X115177150Y-79886768D01*
X115283495Y-79757187D01*
X115413076Y-79650842D01*
X115428248Y-79642732D01*
X115560912Y-79571822D01*
X115721331Y-79523159D01*
X115846350Y-79510846D01*
X115929958Y-79510846D01*
X116054977Y-79523159D01*
X116054977Y-79523159D01*
G37*
G36*
X110610074Y-76569857D02*
G01*
X110764946Y-76634007D01*
X110904327Y-76727139D01*
X111022861Y-76845673D01*
X111115993Y-76985054D01*
X111180143Y-77139926D01*
X111212846Y-77304338D01*
X111212846Y-77471970D01*
X111180143Y-77636382D01*
X111115993Y-77791254D01*
X111022861Y-77930635D01*
X110904327Y-78049169D01*
X110764946Y-78142301D01*
X110610074Y-78206451D01*
X110445662Y-78239154D01*
X110278030Y-78239154D01*
X110113618Y-78206451D01*
X109958746Y-78142301D01*
X109819365Y-78049169D01*
X109700831Y-77930635D01*
X109607699Y-77791254D01*
X109543549Y-77636382D01*
X109510846Y-77471970D01*
X109510846Y-77304338D01*
X109543549Y-77139926D01*
X109607699Y-76985054D01*
X109700831Y-76845673D01*
X109819365Y-76727139D01*
X109958746Y-76634007D01*
X110113618Y-76569857D01*
X110278030Y-76537154D01*
X110445662Y-76537154D01*
X110610074Y-76569857D01*
X110610074Y-76569857D01*
G37*
G36*
X101056564Y-75239389D02*
G01*
X101247833Y-75318615D01*
X101247835Y-75318616D01*
X101273174Y-75335547D01*
X101419973Y-75433635D01*
X101566365Y-75580027D01*
X101681385Y-75752167D01*
X101760611Y-75943436D01*
X101801000Y-76146484D01*
X101801000Y-76353516D01*
X101760611Y-76556564D01*
X101681385Y-76747833D01*
X101681384Y-76747835D01*
X101566365Y-76919973D01*
X101419973Y-77066365D01*
X101247835Y-77181384D01*
X101247834Y-77181385D01*
X101247833Y-77181385D01*
X101056564Y-77260611D01*
X100853516Y-77301000D01*
X100646484Y-77301000D01*
X100443436Y-77260611D01*
X100252167Y-77181385D01*
X100252166Y-77181385D01*
X100252165Y-77181384D01*
X100080027Y-77066365D01*
X99933635Y-76919973D01*
X99818616Y-76747835D01*
X99818615Y-76747833D01*
X99739389Y-76556564D01*
X99699000Y-76353516D01*
X99699000Y-76146484D01*
X99739389Y-75943436D01*
X99818615Y-75752167D01*
X99933635Y-75580027D01*
X100080027Y-75433635D01*
X100226826Y-75335547D01*
X100252165Y-75318616D01*
X100252167Y-75318615D01*
X100443436Y-75239389D01*
X100646484Y-75199000D01*
X100853516Y-75199000D01*
X101056564Y-75239389D01*
X101056564Y-75239389D01*
G37*
G36*
X107556564Y-75239389D02*
G01*
X107747833Y-75318615D01*
X107747835Y-75318616D01*
X107773174Y-75335547D01*
X107919973Y-75433635D01*
X108066365Y-75580027D01*
X108181385Y-75752167D01*
X108260611Y-75943436D01*
X108301000Y-76146484D01*
X108301000Y-76353516D01*
X108260611Y-76556564D01*
X108181385Y-76747833D01*
X108181384Y-76747835D01*
X108066365Y-76919973D01*
X107919973Y-77066365D01*
X107747835Y-77181384D01*
X107747834Y-77181385D01*
X107747833Y-77181385D01*
X107556564Y-77260611D01*
X107353516Y-77301000D01*
X107146484Y-77301000D01*
X106943436Y-77260611D01*
X106752167Y-77181385D01*
X106752166Y-77181385D01*
X106752165Y-77181384D01*
X106580027Y-77066365D01*
X106433635Y-76919973D01*
X106318616Y-76747835D01*
X106318615Y-76747833D01*
X106239389Y-76556564D01*
X106199000Y-76353516D01*
X106199000Y-76146484D01*
X106239389Y-75943436D01*
X106318615Y-75752167D01*
X106433635Y-75580027D01*
X106580027Y-75433635D01*
X106726826Y-75335547D01*
X106752165Y-75318616D01*
X106752167Y-75318615D01*
X106943436Y-75239389D01*
X107146484Y-75199000D01*
X107353516Y-75199000D01*
X107556564Y-75239389D01*
X107556564Y-75239389D01*
G37*
G36*
X91556564Y-75239389D02*
G01*
X91747833Y-75318615D01*
X91747835Y-75318616D01*
X91773174Y-75335547D01*
X91919973Y-75433635D01*
X92066365Y-75580027D01*
X92181385Y-75752167D01*
X92260611Y-75943436D01*
X92301000Y-76146484D01*
X92301000Y-76353516D01*
X92260611Y-76556564D01*
X92181385Y-76747833D01*
X92181384Y-76747835D01*
X92066365Y-76919973D01*
X91919973Y-77066365D01*
X91747835Y-77181384D01*
X91747834Y-77181385D01*
X91747833Y-77181385D01*
X91556564Y-77260611D01*
X91353516Y-77301000D01*
X91146484Y-77301000D01*
X90943436Y-77260611D01*
X90752167Y-77181385D01*
X90752166Y-77181385D01*
X90752165Y-77181384D01*
X90580027Y-77066365D01*
X90433635Y-76919973D01*
X90318616Y-76747835D01*
X90318615Y-76747833D01*
X90239389Y-76556564D01*
X90199000Y-76353516D01*
X90199000Y-76146484D01*
X90239389Y-75943436D01*
X90318615Y-75752167D01*
X90433635Y-75580027D01*
X90580027Y-75433635D01*
X90726826Y-75335547D01*
X90752165Y-75318616D01*
X90752167Y-75318615D01*
X90943436Y-75239389D01*
X91146484Y-75199000D01*
X91353516Y-75199000D01*
X91556564Y-75239389D01*
X91556564Y-75239389D01*
G37*
G36*
X98056564Y-75239389D02*
G01*
X98247833Y-75318615D01*
X98247835Y-75318616D01*
X98273174Y-75335547D01*
X98419973Y-75433635D01*
X98566365Y-75580027D01*
X98681385Y-75752167D01*
X98760611Y-75943436D01*
X98801000Y-76146484D01*
X98801000Y-76353516D01*
X98760611Y-76556564D01*
X98681385Y-76747833D01*
X98681384Y-76747835D01*
X98566365Y-76919973D01*
X98419973Y-77066365D01*
X98247835Y-77181384D01*
X98247834Y-77181385D01*
X98247833Y-77181385D01*
X98056564Y-77260611D01*
X97853516Y-77301000D01*
X97646484Y-77301000D01*
X97443436Y-77260611D01*
X97252167Y-77181385D01*
X97252166Y-77181385D01*
X97252165Y-77181384D01*
X97080027Y-77066365D01*
X96933635Y-76919973D01*
X96818616Y-76747835D01*
X96818615Y-76747833D01*
X96739389Y-76556564D01*
X96699000Y-76353516D01*
X96699000Y-76146484D01*
X96739389Y-75943436D01*
X96818615Y-75752167D01*
X96933635Y-75580027D01*
X97080027Y-75433635D01*
X97226826Y-75335547D01*
X97252165Y-75318616D01*
X97252167Y-75318615D01*
X97443436Y-75239389D01*
X97646484Y-75199000D01*
X97853516Y-75199000D01*
X98056564Y-75239389D01*
X98056564Y-75239389D01*
G37*
G36*
X86911000Y-77201000D02*
G01*
X85009000Y-77201000D01*
X85009000Y-75299000D01*
X86911000Y-75299000D01*
X86911000Y-77201000D01*
X86911000Y-77201000D01*
G37*
G36*
X88777395Y-75335546D02*
G01*
X88950466Y-75407234D01*
X88956572Y-75411314D01*
X89106227Y-75511310D01*
X89238690Y-75643773D01*
X89291081Y-75722182D01*
X89342766Y-75799534D01*
X89414454Y-75972605D01*
X89451000Y-76156333D01*
X89451000Y-76343667D01*
X89414454Y-76527395D01*
X89342766Y-76700466D01*
X89311116Y-76747833D01*
X89238690Y-76856227D01*
X89106227Y-76988690D01*
X89029400Y-77040024D01*
X88950466Y-77092766D01*
X88777395Y-77164454D01*
X88593667Y-77201000D01*
X88406333Y-77201000D01*
X88222605Y-77164454D01*
X88049534Y-77092766D01*
X87970600Y-77040024D01*
X87893773Y-76988690D01*
X87761310Y-76856227D01*
X87688884Y-76747833D01*
X87657234Y-76700466D01*
X87585546Y-76527395D01*
X87549000Y-76343667D01*
X87549000Y-76156333D01*
X87585546Y-75972605D01*
X87657234Y-75799534D01*
X87708919Y-75722182D01*
X87761310Y-75643773D01*
X87893773Y-75511310D01*
X88043428Y-75411314D01*
X88049534Y-75407234D01*
X88222605Y-75335546D01*
X88406333Y-75299000D01*
X88593667Y-75299000D01*
X88777395Y-75335546D01*
X88777395Y-75335546D01*
G37*
G36*
X115916823Y-75411313D02*
G01*
X116077242Y-75459976D01*
X116173279Y-75511309D01*
X116225078Y-75538996D01*
X116354659Y-75645341D01*
X116461004Y-75774922D01*
X116461005Y-75774924D01*
X116540024Y-75922758D01*
X116588687Y-76083177D01*
X116605117Y-76250000D01*
X116588687Y-76416823D01*
X116540024Y-76577242D01*
X116509683Y-76634006D01*
X116461004Y-76725078D01*
X116354659Y-76854659D01*
X116225078Y-76961004D01*
X116225076Y-76961005D01*
X116077242Y-77040024D01*
X115916823Y-77088687D01*
X115791804Y-77101000D01*
X115708196Y-77101000D01*
X115583177Y-77088687D01*
X115422758Y-77040024D01*
X115274924Y-76961005D01*
X115274922Y-76961004D01*
X115145341Y-76854659D01*
X115038996Y-76725078D01*
X114990317Y-76634006D01*
X114959976Y-76577242D01*
X114911313Y-76416823D01*
X114894883Y-76250000D01*
X114911313Y-76083177D01*
X114959976Y-75922758D01*
X115038995Y-75774924D01*
X115038996Y-75774922D01*
X115145341Y-75645341D01*
X115274922Y-75538996D01*
X115326721Y-75511309D01*
X115422758Y-75459976D01*
X115583177Y-75411313D01*
X115708196Y-75399000D01*
X115791804Y-75399000D01*
X115916823Y-75411313D01*
X115916823Y-75411313D01*
G37*
G36*
X110610074Y-72319857D02*
G01*
X110764946Y-72384007D01*
X110904327Y-72477139D01*
X111022861Y-72595673D01*
X111115993Y-72735054D01*
X111180143Y-72889926D01*
X111212846Y-73054338D01*
X111212846Y-73221970D01*
X111180143Y-73386382D01*
X111115993Y-73541254D01*
X111022861Y-73680635D01*
X110904327Y-73799169D01*
X110764946Y-73892301D01*
X110610074Y-73956451D01*
X110445662Y-73989154D01*
X110278030Y-73989154D01*
X110113618Y-73956451D01*
X109958746Y-73892301D01*
X109819365Y-73799169D01*
X109700831Y-73680635D01*
X109607699Y-73541254D01*
X109543549Y-73386382D01*
X109510846Y-73221970D01*
X109510846Y-73054338D01*
X109543549Y-72889926D01*
X109607699Y-72735054D01*
X109700831Y-72595673D01*
X109819365Y-72477139D01*
X109958746Y-72384007D01*
X110113618Y-72319857D01*
X110278030Y-72287154D01*
X110445662Y-72287154D01*
X110610074Y-72319857D01*
X110610074Y-72319857D01*
G37*
G36*
X115916823Y-71161313D02*
G01*
X116077242Y-71209976D01*
X116209906Y-71280886D01*
X116225078Y-71288996D01*
X116354659Y-71395341D01*
X116461004Y-71524922D01*
X116461005Y-71524924D01*
X116540024Y-71672758D01*
X116588687Y-71833177D01*
X116605117Y-72000000D01*
X116588687Y-72166823D01*
X116540024Y-72327242D01*
X116524532Y-72356225D01*
X116461004Y-72475078D01*
X116354659Y-72604659D01*
X116225078Y-72711004D01*
X116225076Y-72711005D01*
X116077242Y-72790024D01*
X115916823Y-72838687D01*
X115791804Y-72851000D01*
X115708196Y-72851000D01*
X115583177Y-72838687D01*
X115422758Y-72790024D01*
X115274924Y-72711005D01*
X115274922Y-72711004D01*
X115145341Y-72604659D01*
X115038996Y-72475078D01*
X114975468Y-72356225D01*
X114959976Y-72327242D01*
X114911313Y-72166823D01*
X114894883Y-72000000D01*
X114911313Y-71833177D01*
X114959976Y-71672758D01*
X115038995Y-71524924D01*
X115038996Y-71524922D01*
X115145341Y-71395341D01*
X115274922Y-71288996D01*
X115290094Y-71280886D01*
X115422758Y-71209976D01*
X115583177Y-71161313D01*
X115708196Y-71149000D01*
X115791804Y-71149000D01*
X115916823Y-71161313D01*
X115916823Y-71161313D01*
G37*
G36*
X107556564Y-70739389D02*
G01*
X107747833Y-70818615D01*
X107747835Y-70818616D01*
X107919973Y-70933635D01*
X108066365Y-71080027D01*
X108153194Y-71209975D01*
X108181385Y-71252167D01*
X108260611Y-71443436D01*
X108301000Y-71646484D01*
X108301000Y-71853516D01*
X108260611Y-72056564D01*
X108181385Y-72247833D01*
X108181384Y-72247835D01*
X108066365Y-72419973D01*
X107919973Y-72566365D01*
X107747835Y-72681384D01*
X107747834Y-72681385D01*
X107747833Y-72681385D01*
X107556564Y-72760611D01*
X107353516Y-72801000D01*
X107146484Y-72801000D01*
X106943436Y-72760611D01*
X106752167Y-72681385D01*
X106752166Y-72681385D01*
X106752165Y-72681384D01*
X106580027Y-72566365D01*
X106433635Y-72419973D01*
X106318616Y-72247835D01*
X106318615Y-72247833D01*
X106239389Y-72056564D01*
X106199000Y-71853516D01*
X106199000Y-71646484D01*
X106239389Y-71443436D01*
X106318615Y-71252167D01*
X106346807Y-71209975D01*
X106433635Y-71080027D01*
X106580027Y-70933635D01*
X106752165Y-70818616D01*
X106752167Y-70818615D01*
X106943436Y-70739389D01*
X107146484Y-70699000D01*
X107353516Y-70699000D01*
X107556564Y-70739389D01*
X107556564Y-70739389D01*
G37*
G36*
X91556564Y-70739389D02*
G01*
X91747833Y-70818615D01*
X91747835Y-70818616D01*
X91919973Y-70933635D01*
X92066365Y-71080027D01*
X92153194Y-71209975D01*
X92181385Y-71252167D01*
X92260611Y-71443436D01*
X92301000Y-71646484D01*
X92301000Y-71853516D01*
X92260611Y-72056564D01*
X92181385Y-72247833D01*
X92181384Y-72247835D01*
X92066365Y-72419973D01*
X91919973Y-72566365D01*
X91747835Y-72681384D01*
X91747834Y-72681385D01*
X91747833Y-72681385D01*
X91556564Y-72760611D01*
X91353516Y-72801000D01*
X91146484Y-72801000D01*
X90943436Y-72760611D01*
X90752167Y-72681385D01*
X90752166Y-72681385D01*
X90752165Y-72681384D01*
X90580027Y-72566365D01*
X90433635Y-72419973D01*
X90318616Y-72247835D01*
X90318615Y-72247833D01*
X90239389Y-72056564D01*
X90199000Y-71853516D01*
X90199000Y-71646484D01*
X90239389Y-71443436D01*
X90318615Y-71252167D01*
X90346807Y-71209975D01*
X90433635Y-71080027D01*
X90580027Y-70933635D01*
X90752165Y-70818616D01*
X90752167Y-70818615D01*
X90943436Y-70739389D01*
X91146484Y-70699000D01*
X91353516Y-70699000D01*
X91556564Y-70739389D01*
X91556564Y-70739389D01*
G37*
G36*
X101056564Y-70739389D02*
G01*
X101247833Y-70818615D01*
X101247835Y-70818616D01*
X101419973Y-70933635D01*
X101566365Y-71080027D01*
X101653194Y-71209975D01*
X101681385Y-71252167D01*
X101760611Y-71443436D01*
X101801000Y-71646484D01*
X101801000Y-71853516D01*
X101760611Y-72056564D01*
X101681385Y-72247833D01*
X101681384Y-72247835D01*
X101566365Y-72419973D01*
X101419973Y-72566365D01*
X101247835Y-72681384D01*
X101247834Y-72681385D01*
X101247833Y-72681385D01*
X101056564Y-72760611D01*
X100853516Y-72801000D01*
X100646484Y-72801000D01*
X100443436Y-72760611D01*
X100252167Y-72681385D01*
X100252166Y-72681385D01*
X100252165Y-72681384D01*
X100080027Y-72566365D01*
X99933635Y-72419973D01*
X99818616Y-72247835D01*
X99818615Y-72247833D01*
X99739389Y-72056564D01*
X99699000Y-71853516D01*
X99699000Y-71646484D01*
X99739389Y-71443436D01*
X99818615Y-71252167D01*
X99846807Y-71209975D01*
X99933635Y-71080027D01*
X100080027Y-70933635D01*
X100252165Y-70818616D01*
X100252167Y-70818615D01*
X100443436Y-70739389D01*
X100646484Y-70699000D01*
X100853516Y-70699000D01*
X101056564Y-70739389D01*
X101056564Y-70739389D01*
G37*
G36*
X98056564Y-70739389D02*
G01*
X98247833Y-70818615D01*
X98247835Y-70818616D01*
X98419973Y-70933635D01*
X98566365Y-71080027D01*
X98653194Y-71209975D01*
X98681385Y-71252167D01*
X98760611Y-71443436D01*
X98801000Y-71646484D01*
X98801000Y-71853516D01*
X98760611Y-72056564D01*
X98681385Y-72247833D01*
X98681384Y-72247835D01*
X98566365Y-72419973D01*
X98419973Y-72566365D01*
X98247835Y-72681384D01*
X98247834Y-72681385D01*
X98247833Y-72681385D01*
X98056564Y-72760611D01*
X97853516Y-72801000D01*
X97646484Y-72801000D01*
X97443436Y-72760611D01*
X97252167Y-72681385D01*
X97252166Y-72681385D01*
X97252165Y-72681384D01*
X97080027Y-72566365D01*
X96933635Y-72419973D01*
X96818616Y-72247835D01*
X96818615Y-72247833D01*
X96739389Y-72056564D01*
X96699000Y-71853516D01*
X96699000Y-71646484D01*
X96739389Y-71443436D01*
X96818615Y-71252167D01*
X96846807Y-71209975D01*
X96933635Y-71080027D01*
X97080027Y-70933635D01*
X97252165Y-70818616D01*
X97252167Y-70818615D01*
X97443436Y-70739389D01*
X97646484Y-70699000D01*
X97853516Y-70699000D01*
X98056564Y-70739389D01*
X98056564Y-70739389D01*
G37*
G36*
X88777395Y-70835546D02*
G01*
X88950466Y-70907234D01*
X88950467Y-70907235D01*
X89106227Y-71011310D01*
X89238690Y-71143773D01*
X89282925Y-71209976D01*
X89342766Y-71299534D01*
X89414454Y-71472605D01*
X89451000Y-71656333D01*
X89451000Y-71843667D01*
X89414454Y-72027395D01*
X89342766Y-72200466D01*
X89342765Y-72200467D01*
X89238690Y-72356227D01*
X89106227Y-72488690D01*
X89027818Y-72541081D01*
X88950466Y-72592766D01*
X88777395Y-72664454D01*
X88593667Y-72701000D01*
X88406333Y-72701000D01*
X88222605Y-72664454D01*
X88049534Y-72592766D01*
X87972182Y-72541081D01*
X87893773Y-72488690D01*
X87761310Y-72356227D01*
X87657235Y-72200467D01*
X87657234Y-72200466D01*
X87585546Y-72027395D01*
X87549000Y-71843667D01*
X87549000Y-71656333D01*
X87585546Y-71472605D01*
X87657234Y-71299534D01*
X87717075Y-71209976D01*
X87761310Y-71143773D01*
X87893773Y-71011310D01*
X88049533Y-70907235D01*
X88049534Y-70907234D01*
X88222605Y-70835546D01*
X88406333Y-70799000D01*
X88593667Y-70799000D01*
X88777395Y-70835546D01*
X88777395Y-70835546D01*
G37*
G36*
X86911000Y-72701000D02*
G01*
X85009000Y-72701000D01*
X85009000Y-70799000D01*
X86911000Y-70799000D01*
X86911000Y-72701000D01*
X86911000Y-72701000D01*
G37*
G36*
X110610074Y-68069857D02*
G01*
X110764946Y-68134007D01*
X110904327Y-68227139D01*
X111022861Y-68345673D01*
X111115993Y-68485054D01*
X111180143Y-68639926D01*
X111212846Y-68804338D01*
X111212846Y-68971970D01*
X111180143Y-69136382D01*
X111115993Y-69291254D01*
X111022861Y-69430635D01*
X110904327Y-69549169D01*
X110764946Y-69642301D01*
X110610074Y-69706451D01*
X110445662Y-69739154D01*
X110278030Y-69739154D01*
X110113618Y-69706451D01*
X109958746Y-69642301D01*
X109819365Y-69549169D01*
X109700831Y-69430635D01*
X109607699Y-69291254D01*
X109543549Y-69136382D01*
X109510846Y-68971970D01*
X109510846Y-68804338D01*
X109543549Y-68639926D01*
X109607699Y-68485054D01*
X109700831Y-68345673D01*
X109819365Y-68227139D01*
X109958746Y-68134007D01*
X110113618Y-68069857D01*
X110278030Y-68037154D01*
X110445662Y-68037154D01*
X110610074Y-68069857D01*
X110610074Y-68069857D01*
G37*
G36*
X115916823Y-66911313D02*
G01*
X116077242Y-66959976D01*
X116209906Y-67030886D01*
X116225078Y-67038996D01*
X116354659Y-67145341D01*
X116461004Y-67274922D01*
X116461005Y-67274924D01*
X116540024Y-67422758D01*
X116588687Y-67583177D01*
X116605117Y-67750000D01*
X116588687Y-67916823D01*
X116540024Y-68077242D01*
X116493408Y-68164454D01*
X116461004Y-68225078D01*
X116354659Y-68354659D01*
X116225078Y-68461004D01*
X116225076Y-68461005D01*
X116077242Y-68540024D01*
X115916823Y-68588687D01*
X115791804Y-68601000D01*
X115708196Y-68601000D01*
X115583177Y-68588687D01*
X115422758Y-68540024D01*
X115274924Y-68461005D01*
X115274922Y-68461004D01*
X115145341Y-68354659D01*
X115038996Y-68225078D01*
X115006592Y-68164454D01*
X114959976Y-68077242D01*
X114911313Y-67916823D01*
X114894883Y-67750000D01*
X114911313Y-67583177D01*
X114959976Y-67422758D01*
X115038995Y-67274924D01*
X115038996Y-67274922D01*
X115145341Y-67145341D01*
X115274922Y-67038996D01*
X115290094Y-67030886D01*
X115422758Y-66959976D01*
X115583177Y-66911313D01*
X115708196Y-66899000D01*
X115791804Y-66899000D01*
X115916823Y-66911313D01*
X115916823Y-66911313D01*
G37*
G36*
X107556564Y-66239389D02*
G01*
X107747833Y-66318615D01*
X107747835Y-66318616D01*
X107773174Y-66335547D01*
X107919973Y-66433635D01*
X108066365Y-66580027D01*
X108181385Y-66752167D01*
X108260611Y-66943436D01*
X108301000Y-67146484D01*
X108301000Y-67353516D01*
X108260611Y-67556564D01*
X108181385Y-67747833D01*
X108181384Y-67747835D01*
X108066365Y-67919973D01*
X107919973Y-68066365D01*
X107747835Y-68181384D01*
X107747834Y-68181385D01*
X107747833Y-68181385D01*
X107556564Y-68260611D01*
X107353516Y-68301000D01*
X107146484Y-68301000D01*
X106943436Y-68260611D01*
X106752167Y-68181385D01*
X106752166Y-68181385D01*
X106752165Y-68181384D01*
X106580027Y-68066365D01*
X106433635Y-67919973D01*
X106318616Y-67747835D01*
X106318615Y-67747833D01*
X106239389Y-67556564D01*
X106199000Y-67353516D01*
X106199000Y-67146484D01*
X106239389Y-66943436D01*
X106318615Y-66752167D01*
X106433635Y-66580027D01*
X106580027Y-66433635D01*
X106726826Y-66335547D01*
X106752165Y-66318616D01*
X106752167Y-66318615D01*
X106943436Y-66239389D01*
X107146484Y-66199000D01*
X107353516Y-66199000D01*
X107556564Y-66239389D01*
X107556564Y-66239389D01*
G37*
G36*
X101056564Y-66239389D02*
G01*
X101247833Y-66318615D01*
X101247835Y-66318616D01*
X101273174Y-66335547D01*
X101419973Y-66433635D01*
X101566365Y-66580027D01*
X101681385Y-66752167D01*
X101760611Y-66943436D01*
X101801000Y-67146484D01*
X101801000Y-67353516D01*
X101760611Y-67556564D01*
X101681385Y-67747833D01*
X101681384Y-67747835D01*
X101566365Y-67919973D01*
X101419973Y-68066365D01*
X101247835Y-68181384D01*
X101247834Y-68181385D01*
X101247833Y-68181385D01*
X101056564Y-68260611D01*
X100853516Y-68301000D01*
X100646484Y-68301000D01*
X100443436Y-68260611D01*
X100252167Y-68181385D01*
X100252166Y-68181385D01*
X100252165Y-68181384D01*
X100080027Y-68066365D01*
X99933635Y-67919973D01*
X99818616Y-67747835D01*
X99818615Y-67747833D01*
X99739389Y-67556564D01*
X99699000Y-67353516D01*
X99699000Y-67146484D01*
X99739389Y-66943436D01*
X99818615Y-66752167D01*
X99933635Y-66580027D01*
X100080027Y-66433635D01*
X100226826Y-66335547D01*
X100252165Y-66318616D01*
X100252167Y-66318615D01*
X100443436Y-66239389D01*
X100646484Y-66199000D01*
X100853516Y-66199000D01*
X101056564Y-66239389D01*
X101056564Y-66239389D01*
G37*
G36*
X98056564Y-66239389D02*
G01*
X98247833Y-66318615D01*
X98247835Y-66318616D01*
X98273174Y-66335547D01*
X98419973Y-66433635D01*
X98566365Y-66580027D01*
X98681385Y-66752167D01*
X98760611Y-66943436D01*
X98801000Y-67146484D01*
X98801000Y-67353516D01*
X98760611Y-67556564D01*
X98681385Y-67747833D01*
X98681384Y-67747835D01*
X98566365Y-67919973D01*
X98419973Y-68066365D01*
X98247835Y-68181384D01*
X98247834Y-68181385D01*
X98247833Y-68181385D01*
X98056564Y-68260611D01*
X97853516Y-68301000D01*
X97646484Y-68301000D01*
X97443436Y-68260611D01*
X97252167Y-68181385D01*
X97252166Y-68181385D01*
X97252165Y-68181384D01*
X97080027Y-68066365D01*
X96933635Y-67919973D01*
X96818616Y-67747835D01*
X96818615Y-67747833D01*
X96739389Y-67556564D01*
X96699000Y-67353516D01*
X96699000Y-67146484D01*
X96739389Y-66943436D01*
X96818615Y-66752167D01*
X96933635Y-66580027D01*
X97080027Y-66433635D01*
X97226826Y-66335547D01*
X97252165Y-66318616D01*
X97252167Y-66318615D01*
X97443436Y-66239389D01*
X97646484Y-66199000D01*
X97853516Y-66199000D01*
X98056564Y-66239389D01*
X98056564Y-66239389D01*
G37*
G36*
X91556564Y-66239389D02*
G01*
X91747833Y-66318615D01*
X91747835Y-66318616D01*
X91773174Y-66335547D01*
X91919973Y-66433635D01*
X92066365Y-66580027D01*
X92181385Y-66752167D01*
X92260611Y-66943436D01*
X92301000Y-67146484D01*
X92301000Y-67353516D01*
X92260611Y-67556564D01*
X92181385Y-67747833D01*
X92181384Y-67747835D01*
X92066365Y-67919973D01*
X91919973Y-68066365D01*
X91747835Y-68181384D01*
X91747834Y-68181385D01*
X91747833Y-68181385D01*
X91556564Y-68260611D01*
X91353516Y-68301000D01*
X91146484Y-68301000D01*
X90943436Y-68260611D01*
X90752167Y-68181385D01*
X90752166Y-68181385D01*
X90752165Y-68181384D01*
X90580027Y-68066365D01*
X90433635Y-67919973D01*
X90318616Y-67747835D01*
X90318615Y-67747833D01*
X90239389Y-67556564D01*
X90199000Y-67353516D01*
X90199000Y-67146484D01*
X90239389Y-66943436D01*
X90318615Y-66752167D01*
X90433635Y-66580027D01*
X90580027Y-66433635D01*
X90726826Y-66335547D01*
X90752165Y-66318616D01*
X90752167Y-66318615D01*
X90943436Y-66239389D01*
X91146484Y-66199000D01*
X91353516Y-66199000D01*
X91556564Y-66239389D01*
X91556564Y-66239389D01*
G37*
G36*
X88777395Y-66335546D02*
G01*
X88950466Y-66407234D01*
X88950467Y-66407235D01*
X89106227Y-66511310D01*
X89238690Y-66643773D01*
X89238691Y-66643775D01*
X89342766Y-66799534D01*
X89414454Y-66972605D01*
X89451000Y-67156333D01*
X89451000Y-67343667D01*
X89414454Y-67527395D01*
X89342766Y-67700466D01*
X89342765Y-67700467D01*
X89238690Y-67856227D01*
X89106227Y-67988690D01*
X89033695Y-68037154D01*
X88950466Y-68092766D01*
X88777395Y-68164454D01*
X88593667Y-68201000D01*
X88406333Y-68201000D01*
X88222605Y-68164454D01*
X88049534Y-68092766D01*
X87966305Y-68037154D01*
X87893773Y-67988690D01*
X87761310Y-67856227D01*
X87657235Y-67700467D01*
X87657234Y-67700466D01*
X87585546Y-67527395D01*
X87549000Y-67343667D01*
X87549000Y-67156333D01*
X87585546Y-66972605D01*
X87657234Y-66799534D01*
X87761309Y-66643775D01*
X87761310Y-66643773D01*
X87893773Y-66511310D01*
X88049533Y-66407235D01*
X88049534Y-66407234D01*
X88222605Y-66335546D01*
X88406333Y-66299000D01*
X88593667Y-66299000D01*
X88777395Y-66335546D01*
X88777395Y-66335546D01*
G37*
G36*
X86911000Y-68201000D02*
G01*
X85009000Y-68201000D01*
X85009000Y-66299000D01*
X86911000Y-66299000D01*
X86911000Y-68201000D01*
X86911000Y-68201000D01*
G37*
G36*
X110610074Y-63819857D02*
G01*
X110764946Y-63884007D01*
X110904327Y-63977139D01*
X111022861Y-64095673D01*
X111115993Y-64235054D01*
X111180143Y-64389926D01*
X111212846Y-64554338D01*
X111212846Y-64721970D01*
X111180143Y-64886382D01*
X111115993Y-65041254D01*
X111022861Y-65180635D01*
X110904327Y-65299169D01*
X110764946Y-65392301D01*
X110610074Y-65456451D01*
X110445662Y-65489154D01*
X110278030Y-65489154D01*
X110113618Y-65456451D01*
X109958746Y-65392301D01*
X109819365Y-65299169D01*
X109700831Y-65180635D01*
X109607699Y-65041254D01*
X109543549Y-64886382D01*
X109510846Y-64721970D01*
X109510846Y-64554338D01*
X109543549Y-64389926D01*
X109607699Y-64235054D01*
X109700831Y-64095673D01*
X109819365Y-63977139D01*
X109958746Y-63884007D01*
X110113618Y-63819857D01*
X110278030Y-63787154D01*
X110445662Y-63787154D01*
X110610074Y-63819857D01*
X110610074Y-63819857D01*
G37*
G36*
X115916823Y-62661313D02*
G01*
X116077242Y-62709976D01*
X116209906Y-62780886D01*
X116225078Y-62788996D01*
X116354659Y-62895341D01*
X116461004Y-63024922D01*
X116461005Y-63024924D01*
X116540024Y-63172758D01*
X116588687Y-63333177D01*
X116605117Y-63500000D01*
X116588687Y-63666823D01*
X116578319Y-63701000D01*
X116547985Y-63801000D01*
X116540024Y-63827242D01*
X116509683Y-63884006D01*
X116461004Y-63975078D01*
X116354659Y-64104659D01*
X116225078Y-64211004D01*
X116225076Y-64211005D01*
X116077242Y-64290024D01*
X115916823Y-64338687D01*
X115791804Y-64351000D01*
X115708196Y-64351000D01*
X115583177Y-64338687D01*
X115422758Y-64290024D01*
X115274924Y-64211005D01*
X115274922Y-64211004D01*
X115145341Y-64104659D01*
X115038996Y-63975078D01*
X114990317Y-63884006D01*
X114959976Y-63827242D01*
X114952016Y-63801000D01*
X114921681Y-63701000D01*
X114911313Y-63666823D01*
X114894883Y-63500000D01*
X114911313Y-63333177D01*
X114959976Y-63172758D01*
X115038995Y-63024924D01*
X115038996Y-63024922D01*
X115145341Y-62895341D01*
X115274922Y-62788996D01*
X115290094Y-62780886D01*
X115422758Y-62709976D01*
X115583177Y-62661313D01*
X115708196Y-62649000D01*
X115791804Y-62649000D01*
X115916823Y-62661313D01*
X115916823Y-62661313D01*
G37*
G36*
X107556564Y-61739389D02*
G01*
X107747833Y-61818615D01*
X107747835Y-61818616D01*
X107773174Y-61835547D01*
X107919973Y-61933635D01*
X108066365Y-62080027D01*
X108181385Y-62252167D01*
X108260611Y-62443436D01*
X108301000Y-62646484D01*
X108301000Y-62853516D01*
X108260611Y-63056564D01*
X108181385Y-63247833D01*
X108181384Y-63247835D01*
X108066365Y-63419973D01*
X107919973Y-63566365D01*
X107747835Y-63681384D01*
X107747834Y-63681385D01*
X107747833Y-63681385D01*
X107556564Y-63760611D01*
X107353516Y-63801000D01*
X107146484Y-63801000D01*
X106943436Y-63760611D01*
X106752167Y-63681385D01*
X106752166Y-63681385D01*
X106752165Y-63681384D01*
X106580027Y-63566365D01*
X106433635Y-63419973D01*
X106318616Y-63247835D01*
X106318615Y-63247833D01*
X106239389Y-63056564D01*
X106199000Y-62853516D01*
X106199000Y-62646484D01*
X106239389Y-62443436D01*
X106318615Y-62252167D01*
X106433635Y-62080027D01*
X106580027Y-61933635D01*
X106726826Y-61835547D01*
X106752165Y-61818616D01*
X106752167Y-61818615D01*
X106943436Y-61739389D01*
X107146484Y-61699000D01*
X107353516Y-61699000D01*
X107556564Y-61739389D01*
X107556564Y-61739389D01*
G37*
G36*
X91556564Y-61739389D02*
G01*
X91747833Y-61818615D01*
X91747835Y-61818616D01*
X91773174Y-61835547D01*
X91919973Y-61933635D01*
X92066365Y-62080027D01*
X92181385Y-62252167D01*
X92260611Y-62443436D01*
X92301000Y-62646484D01*
X92301000Y-62853516D01*
X92260611Y-63056564D01*
X92181385Y-63247833D01*
X92181384Y-63247835D01*
X92066365Y-63419973D01*
X91919973Y-63566365D01*
X91747835Y-63681384D01*
X91747834Y-63681385D01*
X91747833Y-63681385D01*
X91556564Y-63760611D01*
X91353516Y-63801000D01*
X91146484Y-63801000D01*
X90943436Y-63760611D01*
X90752167Y-63681385D01*
X90752166Y-63681385D01*
X90752165Y-63681384D01*
X90580027Y-63566365D01*
X90433635Y-63419973D01*
X90318616Y-63247835D01*
X90318615Y-63247833D01*
X90239389Y-63056564D01*
X90199000Y-62853516D01*
X90199000Y-62646484D01*
X90239389Y-62443436D01*
X90318615Y-62252167D01*
X90433635Y-62080027D01*
X90580027Y-61933635D01*
X90726826Y-61835547D01*
X90752165Y-61818616D01*
X90752167Y-61818615D01*
X90943436Y-61739389D01*
X91146484Y-61699000D01*
X91353516Y-61699000D01*
X91556564Y-61739389D01*
X91556564Y-61739389D01*
G37*
G36*
X98056564Y-61739389D02*
G01*
X98247833Y-61818615D01*
X98247835Y-61818616D01*
X98273174Y-61835547D01*
X98419973Y-61933635D01*
X98566365Y-62080027D01*
X98681385Y-62252167D01*
X98760611Y-62443436D01*
X98801000Y-62646484D01*
X98801000Y-62853516D01*
X98760611Y-63056564D01*
X98681385Y-63247833D01*
X98681384Y-63247835D01*
X98566365Y-63419973D01*
X98419973Y-63566365D01*
X98247835Y-63681384D01*
X98247834Y-63681385D01*
X98247833Y-63681385D01*
X98056564Y-63760611D01*
X97853516Y-63801000D01*
X97646484Y-63801000D01*
X97443436Y-63760611D01*
X97252167Y-63681385D01*
X97252166Y-63681385D01*
X97252165Y-63681384D01*
X97080027Y-63566365D01*
X96933635Y-63419973D01*
X96818616Y-63247835D01*
X96818615Y-63247833D01*
X96739389Y-63056564D01*
X96699000Y-62853516D01*
X96699000Y-62646484D01*
X96739389Y-62443436D01*
X96818615Y-62252167D01*
X96933635Y-62080027D01*
X97080027Y-61933635D01*
X97226826Y-61835547D01*
X97252165Y-61818616D01*
X97252167Y-61818615D01*
X97443436Y-61739389D01*
X97646484Y-61699000D01*
X97853516Y-61699000D01*
X98056564Y-61739389D01*
X98056564Y-61739389D01*
G37*
G36*
X101056564Y-61739389D02*
G01*
X101247833Y-61818615D01*
X101247835Y-61818616D01*
X101273174Y-61835547D01*
X101419973Y-61933635D01*
X101566365Y-62080027D01*
X101681385Y-62252167D01*
X101760611Y-62443436D01*
X101801000Y-62646484D01*
X101801000Y-62853516D01*
X101760611Y-63056564D01*
X101681385Y-63247833D01*
X101681384Y-63247835D01*
X101566365Y-63419973D01*
X101419973Y-63566365D01*
X101247835Y-63681384D01*
X101247834Y-63681385D01*
X101247833Y-63681385D01*
X101056564Y-63760611D01*
X100853516Y-63801000D01*
X100646484Y-63801000D01*
X100443436Y-63760611D01*
X100252167Y-63681385D01*
X100252166Y-63681385D01*
X100252165Y-63681384D01*
X100080027Y-63566365D01*
X99933635Y-63419973D01*
X99818616Y-63247835D01*
X99818615Y-63247833D01*
X99739389Y-63056564D01*
X99699000Y-62853516D01*
X99699000Y-62646484D01*
X99739389Y-62443436D01*
X99818615Y-62252167D01*
X99933635Y-62080027D01*
X100080027Y-61933635D01*
X100226826Y-61835547D01*
X100252165Y-61818616D01*
X100252167Y-61818615D01*
X100443436Y-61739389D01*
X100646484Y-61699000D01*
X100853516Y-61699000D01*
X101056564Y-61739389D01*
X101056564Y-61739389D01*
G37*
G36*
X86911000Y-63701000D02*
G01*
X85009000Y-63701000D01*
X85009000Y-61799000D01*
X86911000Y-61799000D01*
X86911000Y-63701000D01*
X86911000Y-63701000D01*
G37*
G36*
X88777395Y-61835546D02*
G01*
X88950466Y-61907234D01*
X88950467Y-61907235D01*
X89106227Y-62011310D01*
X89238690Y-62143773D01*
X89238691Y-62143775D01*
X89342766Y-62299534D01*
X89414454Y-62472605D01*
X89451000Y-62656333D01*
X89451000Y-62843667D01*
X89414454Y-63027395D01*
X89342766Y-63200466D01*
X89342765Y-63200467D01*
X89238690Y-63356227D01*
X89106227Y-63488690D01*
X89089300Y-63500000D01*
X88950466Y-63592766D01*
X88777395Y-63664454D01*
X88593667Y-63701000D01*
X88406333Y-63701000D01*
X88222605Y-63664454D01*
X88049534Y-63592766D01*
X87910700Y-63500000D01*
X87893773Y-63488690D01*
X87761310Y-63356227D01*
X87657235Y-63200467D01*
X87657234Y-63200466D01*
X87585546Y-63027395D01*
X87549000Y-62843667D01*
X87549000Y-62656333D01*
X87585546Y-62472605D01*
X87657234Y-62299534D01*
X87761309Y-62143775D01*
X87761310Y-62143773D01*
X87893773Y-62011310D01*
X88049533Y-61907235D01*
X88049534Y-61907234D01*
X88222605Y-61835546D01*
X88406333Y-61799000D01*
X88593667Y-61799000D01*
X88777395Y-61835546D01*
X88777395Y-61835546D01*
G37*
G36*
X110610074Y-59569857D02*
G01*
X110764946Y-59634007D01*
X110904327Y-59727139D01*
X111022861Y-59845673D01*
X111115993Y-59985054D01*
X111180143Y-60139926D01*
X111212846Y-60304338D01*
X111212846Y-60471970D01*
X111180143Y-60636382D01*
X111115993Y-60791254D01*
X111022861Y-60930635D01*
X110904327Y-61049169D01*
X110764946Y-61142301D01*
X110610074Y-61206451D01*
X110445662Y-61239154D01*
X110278030Y-61239154D01*
X110113618Y-61206451D01*
X109958746Y-61142301D01*
X109819365Y-61049169D01*
X109700831Y-60930635D01*
X109607699Y-60791254D01*
X109543549Y-60636382D01*
X109510846Y-60471970D01*
X109510846Y-60304338D01*
X109543549Y-60139926D01*
X109607699Y-59985054D01*
X109700831Y-59845673D01*
X109819365Y-59727139D01*
X109958746Y-59634007D01*
X110113618Y-59569857D01*
X110278030Y-59537154D01*
X110445662Y-59537154D01*
X110610074Y-59569857D01*
X110610074Y-59569857D01*
G37*
G36*
X115916823Y-58411313D02*
G01*
X116077242Y-58459976D01*
X116203374Y-58527395D01*
X116225078Y-58538996D01*
X116354659Y-58645341D01*
X116461004Y-58774922D01*
X116461005Y-58774924D01*
X116540024Y-58922758D01*
X116588687Y-59083177D01*
X116605117Y-59250000D01*
X116588687Y-59416823D01*
X116540024Y-59577242D01*
X116509683Y-59634006D01*
X116461004Y-59725078D01*
X116354659Y-59854659D01*
X116225078Y-59961004D01*
X116225076Y-59961005D01*
X116077242Y-60040024D01*
X115916823Y-60088687D01*
X115791804Y-60101000D01*
X115708196Y-60101000D01*
X115583177Y-60088687D01*
X115422758Y-60040024D01*
X115274924Y-59961005D01*
X115274922Y-59961004D01*
X115145341Y-59854659D01*
X115038996Y-59725078D01*
X114990317Y-59634006D01*
X114959976Y-59577242D01*
X114911313Y-59416823D01*
X114894883Y-59250000D01*
X114911313Y-59083177D01*
X114959976Y-58922758D01*
X115038995Y-58774924D01*
X115038996Y-58774922D01*
X115145341Y-58645341D01*
X115274922Y-58538996D01*
X115296626Y-58527395D01*
X115422758Y-58459976D01*
X115583177Y-58411313D01*
X115708196Y-58399000D01*
X115791804Y-58399000D01*
X115916823Y-58411313D01*
X115916823Y-58411313D01*
G37*
G36*
X107556564Y-57239389D02*
G01*
X107747833Y-57318615D01*
X107747835Y-57318616D01*
X107773174Y-57335547D01*
X107919973Y-57433635D01*
X108066365Y-57580027D01*
X108181385Y-57752167D01*
X108260611Y-57943436D01*
X108301000Y-58146484D01*
X108301000Y-58353516D01*
X108260611Y-58556564D01*
X108181385Y-58747833D01*
X108181384Y-58747835D01*
X108066365Y-58919973D01*
X107919973Y-59066365D01*
X107747835Y-59181384D01*
X107747834Y-59181385D01*
X107747833Y-59181385D01*
X107556564Y-59260611D01*
X107353516Y-59301000D01*
X107146484Y-59301000D01*
X106943436Y-59260611D01*
X106752167Y-59181385D01*
X106752166Y-59181385D01*
X106752165Y-59181384D01*
X106580027Y-59066365D01*
X106433635Y-58919973D01*
X106318616Y-58747835D01*
X106318615Y-58747833D01*
X106239389Y-58556564D01*
X106199000Y-58353516D01*
X106199000Y-58146484D01*
X106239389Y-57943436D01*
X106318615Y-57752167D01*
X106433635Y-57580027D01*
X106580027Y-57433635D01*
X106726826Y-57335547D01*
X106752165Y-57318616D01*
X106752167Y-57318615D01*
X106943436Y-57239389D01*
X107146484Y-57199000D01*
X107353516Y-57199000D01*
X107556564Y-57239389D01*
X107556564Y-57239389D01*
G37*
G36*
X91556564Y-57239389D02*
G01*
X91747833Y-57318615D01*
X91747835Y-57318616D01*
X91773174Y-57335547D01*
X91919973Y-57433635D01*
X92066365Y-57580027D01*
X92181385Y-57752167D01*
X92260611Y-57943436D01*
X92301000Y-58146484D01*
X92301000Y-58353516D01*
X92260611Y-58556564D01*
X92181385Y-58747833D01*
X92181384Y-58747835D01*
X92066365Y-58919973D01*
X91919973Y-59066365D01*
X91747835Y-59181384D01*
X91747834Y-59181385D01*
X91747833Y-59181385D01*
X91556564Y-59260611D01*
X91353516Y-59301000D01*
X91146484Y-59301000D01*
X90943436Y-59260611D01*
X90752167Y-59181385D01*
X90752166Y-59181385D01*
X90752165Y-59181384D01*
X90580027Y-59066365D01*
X90433635Y-58919973D01*
X90318616Y-58747835D01*
X90318615Y-58747833D01*
X90239389Y-58556564D01*
X90199000Y-58353516D01*
X90199000Y-58146484D01*
X90239389Y-57943436D01*
X90318615Y-57752167D01*
X90433635Y-57580027D01*
X90580027Y-57433635D01*
X90726826Y-57335547D01*
X90752165Y-57318616D01*
X90752167Y-57318615D01*
X90943436Y-57239389D01*
X91146484Y-57199000D01*
X91353516Y-57199000D01*
X91556564Y-57239389D01*
X91556564Y-57239389D01*
G37*
G36*
X98056564Y-57239389D02*
G01*
X98247833Y-57318615D01*
X98247835Y-57318616D01*
X98273174Y-57335547D01*
X98419973Y-57433635D01*
X98566365Y-57580027D01*
X98681385Y-57752167D01*
X98760611Y-57943436D01*
X98801000Y-58146484D01*
X98801000Y-58353516D01*
X98760611Y-58556564D01*
X98681385Y-58747833D01*
X98681384Y-58747835D01*
X98566365Y-58919973D01*
X98419973Y-59066365D01*
X98247835Y-59181384D01*
X98247834Y-59181385D01*
X98247833Y-59181385D01*
X98056564Y-59260611D01*
X97853516Y-59301000D01*
X97646484Y-59301000D01*
X97443436Y-59260611D01*
X97252167Y-59181385D01*
X97252166Y-59181385D01*
X97252165Y-59181384D01*
X97080027Y-59066365D01*
X96933635Y-58919973D01*
X96818616Y-58747835D01*
X96818615Y-58747833D01*
X96739389Y-58556564D01*
X96699000Y-58353516D01*
X96699000Y-58146484D01*
X96739389Y-57943436D01*
X96818615Y-57752167D01*
X96933635Y-57580027D01*
X97080027Y-57433635D01*
X97226826Y-57335547D01*
X97252165Y-57318616D01*
X97252167Y-57318615D01*
X97443436Y-57239389D01*
X97646484Y-57199000D01*
X97853516Y-57199000D01*
X98056564Y-57239389D01*
X98056564Y-57239389D01*
G37*
G36*
X101056564Y-57239389D02*
G01*
X101247833Y-57318615D01*
X101247835Y-57318616D01*
X101273174Y-57335547D01*
X101419973Y-57433635D01*
X101566365Y-57580027D01*
X101681385Y-57752167D01*
X101760611Y-57943436D01*
X101801000Y-58146484D01*
X101801000Y-58353516D01*
X101760611Y-58556564D01*
X101681385Y-58747833D01*
X101681384Y-58747835D01*
X101566365Y-58919973D01*
X101419973Y-59066365D01*
X101247835Y-59181384D01*
X101247834Y-59181385D01*
X101247833Y-59181385D01*
X101056564Y-59260611D01*
X100853516Y-59301000D01*
X100646484Y-59301000D01*
X100443436Y-59260611D01*
X100252167Y-59181385D01*
X100252166Y-59181385D01*
X100252165Y-59181384D01*
X100080027Y-59066365D01*
X99933635Y-58919973D01*
X99818616Y-58747835D01*
X99818615Y-58747833D01*
X99739389Y-58556564D01*
X99699000Y-58353516D01*
X99699000Y-58146484D01*
X99739389Y-57943436D01*
X99818615Y-57752167D01*
X99933635Y-57580027D01*
X100080027Y-57433635D01*
X100226826Y-57335547D01*
X100252165Y-57318616D01*
X100252167Y-57318615D01*
X100443436Y-57239389D01*
X100646484Y-57199000D01*
X100853516Y-57199000D01*
X101056564Y-57239389D01*
X101056564Y-57239389D01*
G37*
G36*
X88777395Y-57335546D02*
G01*
X88950466Y-57407234D01*
X88950467Y-57407235D01*
X89106227Y-57511310D01*
X89238690Y-57643773D01*
X89238691Y-57643775D01*
X89342766Y-57799534D01*
X89414454Y-57972605D01*
X89451000Y-58156333D01*
X89451000Y-58343667D01*
X89414454Y-58527395D01*
X89342766Y-58700466D01*
X89342765Y-58700467D01*
X89238690Y-58856227D01*
X89106227Y-58988690D01*
X89027818Y-59041081D01*
X88950466Y-59092766D01*
X88777395Y-59164454D01*
X88593667Y-59201000D01*
X88406333Y-59201000D01*
X88222605Y-59164454D01*
X88049534Y-59092766D01*
X87972182Y-59041081D01*
X87893773Y-58988690D01*
X87761310Y-58856227D01*
X87657235Y-58700467D01*
X87657234Y-58700466D01*
X87585546Y-58527395D01*
X87549000Y-58343667D01*
X87549000Y-58156333D01*
X87585546Y-57972605D01*
X87657234Y-57799534D01*
X87761309Y-57643775D01*
X87761310Y-57643773D01*
X87893773Y-57511310D01*
X88049533Y-57407235D01*
X88049534Y-57407234D01*
X88222605Y-57335546D01*
X88406333Y-57299000D01*
X88593667Y-57299000D01*
X88777395Y-57335546D01*
X88777395Y-57335546D01*
G37*
G36*
X86911000Y-59201000D02*
G01*
X85009000Y-59201000D01*
X85009000Y-57299000D01*
X86911000Y-57299000D01*
X86911000Y-59201000D01*
X86911000Y-59201000D01*
G37*
G36*
X110498228Y-55431703D02*
G01*
X110653100Y-55495853D01*
X110792481Y-55588985D01*
X110911015Y-55707519D01*
X111004147Y-55846900D01*
X111068297Y-56001772D01*
X111101000Y-56166184D01*
X111101000Y-56333816D01*
X111068297Y-56498228D01*
X111004147Y-56653100D01*
X110911015Y-56792481D01*
X110792481Y-56911015D01*
X110653100Y-57004147D01*
X110498228Y-57068297D01*
X110333816Y-57101000D01*
X110166184Y-57101000D01*
X110001772Y-57068297D01*
X109846900Y-57004147D01*
X109707519Y-56911015D01*
X109588985Y-56792481D01*
X109495853Y-56653100D01*
X109431703Y-56498228D01*
X109399000Y-56333816D01*
X109399000Y-56166184D01*
X109431703Y-56001772D01*
X109495853Y-55846900D01*
X109588985Y-55707519D01*
X109707519Y-55588985D01*
X109846900Y-55495853D01*
X110001772Y-55431703D01*
X110166184Y-55399000D01*
X110333816Y-55399000D01*
X110498228Y-55431703D01*
X110498228Y-55431703D01*
G37*
G36*
X115916823Y-54161313D02*
G01*
X116077242Y-54209976D01*
X116148067Y-54247833D01*
X116225078Y-54288996D01*
X116354659Y-54395341D01*
X116461004Y-54524922D01*
X116461005Y-54524924D01*
X116540024Y-54672758D01*
X116588687Y-54833177D01*
X116605117Y-55000000D01*
X116588687Y-55166823D01*
X116540024Y-55327242D01*
X116484188Y-55431703D01*
X116461004Y-55475078D01*
X116354659Y-55604659D01*
X116225078Y-55711004D01*
X116225076Y-55711005D01*
X116077242Y-55790024D01*
X115916823Y-55838687D01*
X115791804Y-55851000D01*
X115708196Y-55851000D01*
X115583177Y-55838687D01*
X115422758Y-55790024D01*
X115274924Y-55711005D01*
X115274922Y-55711004D01*
X115145341Y-55604659D01*
X115038996Y-55475078D01*
X115015812Y-55431703D01*
X114959976Y-55327242D01*
X114911313Y-55166823D01*
X114894883Y-55000000D01*
X114911313Y-54833177D01*
X114959976Y-54672758D01*
X115038995Y-54524924D01*
X115038996Y-54524922D01*
X115145341Y-54395341D01*
X115274922Y-54288996D01*
X115351933Y-54247833D01*
X115422758Y-54209976D01*
X115583177Y-54161313D01*
X115708196Y-54149000D01*
X115791804Y-54149000D01*
X115916823Y-54161313D01*
X115916823Y-54161313D01*
G37*
G36*
X91556564Y-52739389D02*
G01*
X91747833Y-52818615D01*
X91747835Y-52818616D01*
X91773174Y-52835547D01*
X91919973Y-52933635D01*
X92066365Y-53080027D01*
X92181385Y-53252167D01*
X92260611Y-53443436D01*
X92301000Y-53646484D01*
X92301000Y-53853516D01*
X92260611Y-54056564D01*
X92197066Y-54209975D01*
X92181384Y-54247835D01*
X92066365Y-54419973D01*
X91919973Y-54566365D01*
X91747835Y-54681384D01*
X91747834Y-54681385D01*
X91747833Y-54681385D01*
X91556564Y-54760611D01*
X91353516Y-54801000D01*
X91146484Y-54801000D01*
X90943436Y-54760611D01*
X90752167Y-54681385D01*
X90752166Y-54681385D01*
X90752165Y-54681384D01*
X90580027Y-54566365D01*
X90433635Y-54419973D01*
X90318616Y-54247835D01*
X90302934Y-54209975D01*
X90239389Y-54056564D01*
X90199000Y-53853516D01*
X90199000Y-53646484D01*
X90239389Y-53443436D01*
X90318615Y-53252167D01*
X90433635Y-53080027D01*
X90580027Y-52933635D01*
X90726826Y-52835547D01*
X90752165Y-52818616D01*
X90752167Y-52818615D01*
X90943436Y-52739389D01*
X91146484Y-52699000D01*
X91353516Y-52699000D01*
X91556564Y-52739389D01*
X91556564Y-52739389D01*
G37*
G36*
X98056564Y-52739389D02*
G01*
X98247833Y-52818615D01*
X98247835Y-52818616D01*
X98273174Y-52835547D01*
X98419973Y-52933635D01*
X98566365Y-53080027D01*
X98681385Y-53252167D01*
X98760611Y-53443436D01*
X98801000Y-53646484D01*
X98801000Y-53853516D01*
X98760611Y-54056564D01*
X98697066Y-54209975D01*
X98681384Y-54247835D01*
X98566365Y-54419973D01*
X98419973Y-54566365D01*
X98247835Y-54681384D01*
X98247834Y-54681385D01*
X98247833Y-54681385D01*
X98056564Y-54760611D01*
X97853516Y-54801000D01*
X97646484Y-54801000D01*
X97443436Y-54760611D01*
X97252167Y-54681385D01*
X97252166Y-54681385D01*
X97252165Y-54681384D01*
X97080027Y-54566365D01*
X96933635Y-54419973D01*
X96818616Y-54247835D01*
X96802934Y-54209975D01*
X96739389Y-54056564D01*
X96699000Y-53853516D01*
X96699000Y-53646484D01*
X96739389Y-53443436D01*
X96818615Y-53252167D01*
X96933635Y-53080027D01*
X97080027Y-52933635D01*
X97226826Y-52835547D01*
X97252165Y-52818616D01*
X97252167Y-52818615D01*
X97443436Y-52739389D01*
X97646484Y-52699000D01*
X97853516Y-52699000D01*
X98056564Y-52739389D01*
X98056564Y-52739389D01*
G37*
G36*
X107556564Y-52739389D02*
G01*
X107747833Y-52818615D01*
X107747835Y-52818616D01*
X107773174Y-52835547D01*
X107919973Y-52933635D01*
X108066365Y-53080027D01*
X108181385Y-53252167D01*
X108260611Y-53443436D01*
X108301000Y-53646484D01*
X108301000Y-53853516D01*
X108260611Y-54056564D01*
X108197066Y-54209975D01*
X108181384Y-54247835D01*
X108066365Y-54419973D01*
X107919973Y-54566365D01*
X107747835Y-54681384D01*
X107747834Y-54681385D01*
X107747833Y-54681385D01*
X107556564Y-54760611D01*
X107353516Y-54801000D01*
X107146484Y-54801000D01*
X106943436Y-54760611D01*
X106752167Y-54681385D01*
X106752166Y-54681385D01*
X106752165Y-54681384D01*
X106580027Y-54566365D01*
X106433635Y-54419973D01*
X106318616Y-54247835D01*
X106302934Y-54209975D01*
X106239389Y-54056564D01*
X106199000Y-53853516D01*
X106199000Y-53646484D01*
X106239389Y-53443436D01*
X106318615Y-53252167D01*
X106433635Y-53080027D01*
X106580027Y-52933635D01*
X106726826Y-52835547D01*
X106752165Y-52818616D01*
X106752167Y-52818615D01*
X106943436Y-52739389D01*
X107146484Y-52699000D01*
X107353516Y-52699000D01*
X107556564Y-52739389D01*
X107556564Y-52739389D01*
G37*
G36*
X101056564Y-52739389D02*
G01*
X101247833Y-52818615D01*
X101247835Y-52818616D01*
X101273174Y-52835547D01*
X101419973Y-52933635D01*
X101566365Y-53080027D01*
X101681385Y-53252167D01*
X101760611Y-53443436D01*
X101801000Y-53646484D01*
X101801000Y-53853516D01*
X101760611Y-54056564D01*
X101697066Y-54209975D01*
X101681384Y-54247835D01*
X101566365Y-54419973D01*
X101419973Y-54566365D01*
X101247835Y-54681384D01*
X101247834Y-54681385D01*
X101247833Y-54681385D01*
X101056564Y-54760611D01*
X100853516Y-54801000D01*
X100646484Y-54801000D01*
X100443436Y-54760611D01*
X100252167Y-54681385D01*
X100252166Y-54681385D01*
X100252165Y-54681384D01*
X100080027Y-54566365D01*
X99933635Y-54419973D01*
X99818616Y-54247835D01*
X99802934Y-54209975D01*
X99739389Y-54056564D01*
X99699000Y-53853516D01*
X99699000Y-53646484D01*
X99739389Y-53443436D01*
X99818615Y-53252167D01*
X99933635Y-53080027D01*
X100080027Y-52933635D01*
X100226826Y-52835547D01*
X100252165Y-52818616D01*
X100252167Y-52818615D01*
X100443436Y-52739389D01*
X100646484Y-52699000D01*
X100853516Y-52699000D01*
X101056564Y-52739389D01*
X101056564Y-52739389D01*
G37*
G36*
X88777395Y-52835546D02*
G01*
X88950466Y-52907234D01*
X88950467Y-52907235D01*
X89106227Y-53011310D01*
X89238690Y-53143773D01*
X89238691Y-53143775D01*
X89342766Y-53299534D01*
X89414454Y-53472605D01*
X89451000Y-53656333D01*
X89451000Y-53843667D01*
X89414454Y-54027395D01*
X89342766Y-54200466D01*
X89311116Y-54247833D01*
X89238690Y-54356227D01*
X89106227Y-54488690D01*
X89052002Y-54524922D01*
X88950466Y-54592766D01*
X88777395Y-54664454D01*
X88593667Y-54701000D01*
X88406333Y-54701000D01*
X88222605Y-54664454D01*
X88049534Y-54592766D01*
X87947998Y-54524922D01*
X87893773Y-54488690D01*
X87761310Y-54356227D01*
X87688884Y-54247833D01*
X87657234Y-54200466D01*
X87585546Y-54027395D01*
X87549000Y-53843667D01*
X87549000Y-53656333D01*
X87585546Y-53472605D01*
X87657234Y-53299534D01*
X87761309Y-53143775D01*
X87761310Y-53143773D01*
X87893773Y-53011310D01*
X88049533Y-52907235D01*
X88049534Y-52907234D01*
X88222605Y-52835546D01*
X88406333Y-52799000D01*
X88593667Y-52799000D01*
X88777395Y-52835546D01*
X88777395Y-52835546D01*
G37*
G36*
X86911000Y-54701000D02*
G01*
X85009000Y-54701000D01*
X85009000Y-52799000D01*
X86911000Y-52799000D01*
X86911000Y-54701000D01*
X86911000Y-54701000D01*
G37*
G36*
X115804977Y-50023159D02*
G01*
X115965396Y-50071822D01*
X116098060Y-50142732D01*
X116113232Y-50150842D01*
X116242813Y-50257187D01*
X116349158Y-50386768D01*
X116349159Y-50386770D01*
X116428178Y-50534604D01*
X116476841Y-50695023D01*
X116493271Y-50861846D01*
X116476841Y-51028669D01*
X116428178Y-51189088D01*
X116357268Y-51321752D01*
X116349158Y-51336924D01*
X116242813Y-51466505D01*
X116113232Y-51572850D01*
X116113230Y-51572851D01*
X115965396Y-51651870D01*
X115804977Y-51700533D01*
X115679958Y-51712846D01*
X115596350Y-51712846D01*
X115471331Y-51700533D01*
X115310912Y-51651870D01*
X115163078Y-51572851D01*
X115163076Y-51572850D01*
X115033495Y-51466505D01*
X114927150Y-51336924D01*
X114919040Y-51321752D01*
X114848130Y-51189088D01*
X114799467Y-51028669D01*
X114783037Y-50861846D01*
X114799467Y-50695023D01*
X114848130Y-50534604D01*
X114927149Y-50386770D01*
X114927150Y-50386768D01*
X115033495Y-50257187D01*
X115163076Y-50150842D01*
X115178248Y-50142732D01*
X115310912Y-50071822D01*
X115471331Y-50023159D01*
X115596350Y-50010846D01*
X115679958Y-50010846D01*
X115804977Y-50023159D01*
X115804977Y-50023159D01*
G37*
G36*
X82998228Y-49431703D02*
G01*
X83153100Y-49495853D01*
X83292481Y-49588985D01*
X83411015Y-49707519D01*
X83504147Y-49846900D01*
X83568297Y-50001772D01*
X83601000Y-50166184D01*
X83601000Y-50333816D01*
X83568297Y-50498228D01*
X83504147Y-50653100D01*
X83411015Y-50792481D01*
X83292481Y-50911015D01*
X83153100Y-51004147D01*
X82998228Y-51068297D01*
X82833816Y-51101000D01*
X82666184Y-51101000D01*
X82501772Y-51068297D01*
X82346900Y-51004147D01*
X82207519Y-50911015D01*
X82088985Y-50792481D01*
X81995853Y-50653100D01*
X81931703Y-50498228D01*
X81899000Y-50333816D01*
X81899000Y-50166184D01*
X81931703Y-50001772D01*
X81995853Y-49846900D01*
X82088985Y-49707519D01*
X82207519Y-49588985D01*
X82346900Y-49495853D01*
X82501772Y-49431703D01*
X82666184Y-49399000D01*
X82833816Y-49399000D01*
X82998228Y-49431703D01*
X82998228Y-49431703D01*
G37*
G36*
X93551000Y-49051000D02*
G01*
X89949000Y-49051000D01*
X89949000Y-45449000D01*
X93551000Y-45449000D01*
X93551000Y-49051000D01*
X93551000Y-49051000D01*
G37*
G36*
X88176366Y-42465695D02*
G01*
X88333460Y-42513349D01*
X88478231Y-42590731D01*
X88605128Y-42694872D01*
X88709269Y-42821769D01*
X88786651Y-42966540D01*
X88834305Y-43123634D01*
X88851000Y-43293140D01*
X88851000Y-45206860D01*
X88834305Y-45376366D01*
X88786651Y-45533460D01*
X88709269Y-45678231D01*
X88605128Y-45805128D01*
X88478231Y-45909269D01*
X88333460Y-45986651D01*
X88176366Y-46034305D01*
X88006860Y-46051000D01*
X86093140Y-46051000D01*
X85923634Y-46034305D01*
X85766540Y-45986651D01*
X85621769Y-45909269D01*
X85494872Y-45805128D01*
X85390731Y-45678231D01*
X85313349Y-45533460D01*
X85265695Y-45376366D01*
X85249000Y-45206860D01*
X85249000Y-43293140D01*
X85265695Y-43123634D01*
X85313349Y-42966540D01*
X85390731Y-42821769D01*
X85494872Y-42694872D01*
X85621769Y-42590731D01*
X85766540Y-42513349D01*
X85923634Y-42465695D01*
X86093140Y-42449000D01*
X88006860Y-42449000D01*
X88176366Y-42465695D01*
X88176366Y-42465695D01*
G37*
G36*
X107948766Y-42098821D02*
G01*
X108085257Y-42155358D01*
X108208097Y-42237437D01*
X108312563Y-42341903D01*
X108394642Y-42464743D01*
X108451179Y-42601234D01*
X108480000Y-42746130D01*
X108480000Y-42893870D01*
X108451179Y-43038766D01*
X108394642Y-43175257D01*
X108312563Y-43298097D01*
X108208097Y-43402563D01*
X108085257Y-43484642D01*
X107948766Y-43541179D01*
X107803870Y-43570000D01*
X107656130Y-43570000D01*
X107511234Y-43541179D01*
X107374743Y-43484642D01*
X107251903Y-43402563D01*
X107147437Y-43298097D01*
X107065358Y-43175257D01*
X107008821Y-43038766D01*
X106980000Y-42893870D01*
X106980000Y-42746130D01*
X107008821Y-42601234D01*
X107065358Y-42464743D01*
X107147437Y-42341903D01*
X107251903Y-42237437D01*
X107374743Y-42155358D01*
X107511234Y-42098821D01*
X107656130Y-42070000D01*
X107803870Y-42070000D01*
X107948766Y-42098821D01*
X107948766Y-42098821D01*
G37*
G36*
X105908766Y-42098821D02*
G01*
X106045257Y-42155358D01*
X106168097Y-42237437D01*
X106272563Y-42341903D01*
X106354642Y-42464743D01*
X106411179Y-42601234D01*
X106440000Y-42746130D01*
X106440000Y-42893870D01*
X106411179Y-43038766D01*
X106354642Y-43175257D01*
X106272563Y-43298097D01*
X106168097Y-43402563D01*
X106045257Y-43484642D01*
X105908766Y-43541179D01*
X105763870Y-43570000D01*
X105616130Y-43570000D01*
X105471234Y-43541179D01*
X105334743Y-43484642D01*
X105211903Y-43402563D01*
X105107437Y-43298097D01*
X105025358Y-43175257D01*
X104968821Y-43038766D01*
X104940000Y-42893870D01*
X104940000Y-42746130D01*
X104968821Y-42601234D01*
X105025358Y-42464743D01*
X105107437Y-42341903D01*
X105211903Y-42237437D01*
X105334743Y-42155358D01*
X105471234Y-42098821D01*
X105616130Y-42070000D01*
X105763870Y-42070000D01*
X105908766Y-42098821D01*
X105908766Y-42098821D01*
G37*
G36*
X109988766Y-42098821D02*
G01*
X110125257Y-42155358D01*
X110248097Y-42237437D01*
X110352563Y-42341903D01*
X110434642Y-42464743D01*
X110491179Y-42601234D01*
X110520000Y-42746130D01*
X110520000Y-42893870D01*
X110491179Y-43038766D01*
X110434642Y-43175257D01*
X110352563Y-43298097D01*
X110248097Y-43402563D01*
X110125257Y-43484642D01*
X109988766Y-43541179D01*
X109843870Y-43570000D01*
X109696130Y-43570000D01*
X109551234Y-43541179D01*
X109414743Y-43484642D01*
X109291903Y-43402563D01*
X109187437Y-43298097D01*
X109105358Y-43175257D01*
X109048821Y-43038766D01*
X109020000Y-42893870D01*
X109020000Y-42746130D01*
X109048821Y-42601234D01*
X109105358Y-42464743D01*
X109187437Y-42341903D01*
X109291903Y-42237437D01*
X109414743Y-42155358D01*
X109551234Y-42098821D01*
X109696130Y-42070000D01*
X109843870Y-42070000D01*
X109988766Y-42098821D01*
X109988766Y-42098821D01*
G37*
G36*
X112028766Y-42098821D02*
G01*
X112165257Y-42155358D01*
X112288097Y-42237437D01*
X112392563Y-42341903D01*
X112474642Y-42464743D01*
X112531179Y-42601234D01*
X112560000Y-42746130D01*
X112560000Y-42893870D01*
X112531179Y-43038766D01*
X112474642Y-43175257D01*
X112392563Y-43298097D01*
X112288097Y-43402563D01*
X112165257Y-43484642D01*
X112028766Y-43541179D01*
X111883870Y-43570000D01*
X111736130Y-43570000D01*
X111591234Y-43541179D01*
X111454743Y-43484642D01*
X111331903Y-43402563D01*
X111227437Y-43298097D01*
X111145358Y-43175257D01*
X111088821Y-43038766D01*
X111060000Y-42893870D01*
X111060000Y-42746130D01*
X111088821Y-42601234D01*
X111145358Y-42464743D01*
X111227437Y-42341903D01*
X111331903Y-42237437D01*
X111454743Y-42155358D01*
X111591234Y-42098821D01*
X111736130Y-42070000D01*
X111883870Y-42070000D01*
X112028766Y-42098821D01*
X112028766Y-42098821D01*
G37*
G36*
X82916823Y-41791313D02*
G01*
X83077242Y-41839976D01*
X83209906Y-41910886D01*
X83225078Y-41918996D01*
X83354659Y-42025341D01*
X83461004Y-42154922D01*
X83461005Y-42154924D01*
X83540024Y-42302758D01*
X83588687Y-42463177D01*
X83605117Y-42630000D01*
X83588687Y-42796823D01*
X83540024Y-42957242D01*
X83535054Y-42966540D01*
X83461004Y-43105078D01*
X83354659Y-43234659D01*
X83225078Y-43341004D01*
X83225076Y-43341005D01*
X83077242Y-43420024D01*
X82916823Y-43468687D01*
X82791804Y-43481000D01*
X82708196Y-43481000D01*
X82583177Y-43468687D01*
X82422758Y-43420024D01*
X82274924Y-43341005D01*
X82274922Y-43341004D01*
X82145341Y-43234659D01*
X82038996Y-43105078D01*
X81964946Y-42966540D01*
X81959976Y-42957242D01*
X81911313Y-42796823D01*
X81894883Y-42630000D01*
X81911313Y-42463177D01*
X81959976Y-42302758D01*
X82038995Y-42154924D01*
X82038996Y-42154922D01*
X82145341Y-42025341D01*
X82274922Y-41918996D01*
X82290094Y-41910886D01*
X82422758Y-41839976D01*
X82583177Y-41791313D01*
X82708196Y-41779000D01*
X82791804Y-41779000D01*
X82916823Y-41791313D01*
X82916823Y-41791313D01*
G37*
G36*
X92976979Y-39713293D02*
G01*
X93110625Y-39753834D01*
X93233784Y-39819664D01*
X93341740Y-39908260D01*
X93430336Y-40016216D01*
X93496166Y-40139375D01*
X93536707Y-40273021D01*
X93551000Y-40418140D01*
X93551000Y-42081860D01*
X93536707Y-42226979D01*
X93496166Y-42360625D01*
X93430336Y-42483784D01*
X93341740Y-42591740D01*
X93233784Y-42680336D01*
X93110625Y-42746166D01*
X92976979Y-42786707D01*
X92831860Y-42801000D01*
X90668140Y-42801000D01*
X90523021Y-42786707D01*
X90389375Y-42746166D01*
X90266216Y-42680336D01*
X90158260Y-42591740D01*
X90069664Y-42483784D01*
X90003834Y-42360625D01*
X89963293Y-42226979D01*
X89949000Y-42081860D01*
X89949000Y-40418140D01*
X89963293Y-40273021D01*
X90003834Y-40139375D01*
X90069664Y-40016216D01*
X90158260Y-39908260D01*
X90266216Y-39819664D01*
X90389375Y-39753834D01*
X90523021Y-39713293D01*
X90668140Y-39699000D01*
X92831860Y-39699000D01*
X92976979Y-39713293D01*
X92976979Y-39713293D01*
G37*
G36*
X105420000Y-41790000D02*
G01*
X103920000Y-41790000D01*
X103920000Y-40290000D01*
X105420000Y-40290000D01*
X105420000Y-41790000D01*
X105420000Y-41790000D01*
G37*
G36*
X106928766Y-40318821D02*
G01*
X107065257Y-40375358D01*
X107188097Y-40457437D01*
X107292563Y-40561903D01*
X107374642Y-40684743D01*
X107431179Y-40821234D01*
X107460000Y-40966130D01*
X107460000Y-41113870D01*
X107431179Y-41258766D01*
X107374642Y-41395257D01*
X107292563Y-41518097D01*
X107188097Y-41622563D01*
X107065257Y-41704642D01*
X106928766Y-41761179D01*
X106783870Y-41790000D01*
X106636130Y-41790000D01*
X106491234Y-41761179D01*
X106354743Y-41704642D01*
X106231903Y-41622563D01*
X106127437Y-41518097D01*
X106045358Y-41395257D01*
X105988821Y-41258766D01*
X105960000Y-41113870D01*
X105960000Y-40966130D01*
X105988821Y-40821234D01*
X106045358Y-40684743D01*
X106127437Y-40561903D01*
X106231903Y-40457437D01*
X106354743Y-40375358D01*
X106491234Y-40318821D01*
X106636130Y-40290000D01*
X106783870Y-40290000D01*
X106928766Y-40318821D01*
X106928766Y-40318821D01*
G37*
G36*
X108968766Y-40318821D02*
G01*
X109105257Y-40375358D01*
X109228097Y-40457437D01*
X109332563Y-40561903D01*
X109414642Y-40684743D01*
X109471179Y-40821234D01*
X109500000Y-40966130D01*
X109500000Y-41113870D01*
X109471179Y-41258766D01*
X109414642Y-41395257D01*
X109332563Y-41518097D01*
X109228097Y-41622563D01*
X109105257Y-41704642D01*
X108968766Y-41761179D01*
X108823870Y-41790000D01*
X108676130Y-41790000D01*
X108531234Y-41761179D01*
X108394743Y-41704642D01*
X108271903Y-41622563D01*
X108167437Y-41518097D01*
X108085358Y-41395257D01*
X108028821Y-41258766D01*
X108000000Y-41113870D01*
X108000000Y-40966130D01*
X108028821Y-40821234D01*
X108085358Y-40684743D01*
X108167437Y-40561903D01*
X108271903Y-40457437D01*
X108394743Y-40375358D01*
X108531234Y-40318821D01*
X108676130Y-40290000D01*
X108823870Y-40290000D01*
X108968766Y-40318821D01*
X108968766Y-40318821D01*
G37*
G36*
X111008766Y-40318821D02*
G01*
X111145257Y-40375358D01*
X111268097Y-40457437D01*
X111372563Y-40561903D01*
X111454642Y-40684743D01*
X111511179Y-40821234D01*
X111540000Y-40966130D01*
X111540000Y-41113870D01*
X111511179Y-41258766D01*
X111454642Y-41395257D01*
X111372563Y-41518097D01*
X111268097Y-41622563D01*
X111145257Y-41704642D01*
X111008766Y-41761179D01*
X110863870Y-41790000D01*
X110716130Y-41790000D01*
X110571234Y-41761179D01*
X110434743Y-41704642D01*
X110311903Y-41622563D01*
X110207437Y-41518097D01*
X110125358Y-41395257D01*
X110068821Y-41258766D01*
X110040000Y-41113870D01*
X110040000Y-40966130D01*
X110068821Y-40821234D01*
X110125358Y-40684743D01*
X110207437Y-40561903D01*
X110311903Y-40457437D01*
X110434743Y-40375358D01*
X110571234Y-40318821D01*
X110716130Y-40290000D01*
X110863870Y-40290000D01*
X111008766Y-40318821D01*
X111008766Y-40318821D01*
G37*
G36*
X114926971Y-36856204D02*
G01*
X115088871Y-36888408D01*
X115393883Y-37014748D01*
X115668387Y-37198166D01*
X115901834Y-37431613D01*
X116085252Y-37706117D01*
X116211592Y-38011129D01*
X116276000Y-38334928D01*
X116276000Y-38665072D01*
X116211592Y-38988871D01*
X116085252Y-39293883D01*
X115901834Y-39568387D01*
X115668387Y-39801834D01*
X115393883Y-39985252D01*
X115088871Y-40111592D01*
X114949197Y-40139375D01*
X114765073Y-40176000D01*
X114434927Y-40176000D01*
X114250803Y-40139375D01*
X114111129Y-40111592D01*
X113806117Y-39985252D01*
X113531613Y-39801834D01*
X113298166Y-39568387D01*
X113114748Y-39293883D01*
X112988408Y-38988871D01*
X112924000Y-38665072D01*
X112924000Y-38334928D01*
X112988408Y-38011129D01*
X113114748Y-37706117D01*
X113298166Y-37431613D01*
X113531613Y-37198166D01*
X113806117Y-37014748D01*
X114111129Y-36888408D01*
X114273029Y-36856204D01*
X114434927Y-36824000D01*
X114765073Y-36824000D01*
X114926971Y-36856204D01*
X114926971Y-36856204D01*
G37*
G36*
X102226971Y-36856204D02*
G01*
X102388871Y-36888408D01*
X102693883Y-37014748D01*
X102968387Y-37198166D01*
X103201834Y-37431613D01*
X103385252Y-37706117D01*
X103511592Y-38011129D01*
X103576000Y-38334928D01*
X103576000Y-38665072D01*
X103511592Y-38988871D01*
X103385252Y-39293883D01*
X103201834Y-39568387D01*
X102968387Y-39801834D01*
X102693883Y-39985252D01*
X102388871Y-40111592D01*
X102249197Y-40139375D01*
X102065073Y-40176000D01*
X101734927Y-40176000D01*
X101550803Y-40139375D01*
X101411129Y-40111592D01*
X101106117Y-39985252D01*
X100831613Y-39801834D01*
X100598166Y-39568387D01*
X100414748Y-39293883D01*
X100288408Y-38988871D01*
X100224000Y-38665072D01*
X100224000Y-38334928D01*
X100288408Y-38011129D01*
X100414748Y-37706117D01*
X100598166Y-37431613D01*
X100831613Y-37198166D01*
X101106117Y-37014748D01*
X101411129Y-36888408D01*
X101573029Y-36856204D01*
X101734927Y-36824000D01*
X102065073Y-36824000D01*
X102226971Y-36856204D01*
X102226971Y-36856204D01*
G37*
G36*
X84224549Y-37621116D02*
G01*
X84335734Y-37643232D01*
X84545203Y-37729997D01*
X84733720Y-37855960D01*
X84894040Y-38016280D01*
X85020003Y-38204797D01*
X85106768Y-38414266D01*
X85151000Y-38636636D01*
X85151000Y-38863364D01*
X85106768Y-39085734D01*
X85020003Y-39295203D01*
X84894040Y-39483720D01*
X84733720Y-39644040D01*
X84545203Y-39770003D01*
X84335734Y-39856768D01*
X84224549Y-39878884D01*
X84113365Y-39901000D01*
X83886635Y-39901000D01*
X83775451Y-39878884D01*
X83664266Y-39856768D01*
X83454797Y-39770003D01*
X83266280Y-39644040D01*
X83105960Y-39483720D01*
X82979997Y-39295203D01*
X82893232Y-39085734D01*
X82849000Y-38863364D01*
X82849000Y-38636636D01*
X82893232Y-38414266D01*
X82979997Y-38204797D01*
X83105960Y-38016280D01*
X83266280Y-37855960D01*
X83454797Y-37729997D01*
X83664266Y-37643232D01*
X83775451Y-37621116D01*
X83886635Y-37599000D01*
X84113365Y-37599000D01*
X84224549Y-37621116D01*
X84224549Y-37621116D01*
G37*
M02*
