G04 #@! TF.GenerationSoftware,KiCad,Pcbnew,(5.1.4)-1*
G04 #@! TF.CreationDate,2020-01-04T22:54:04+00:00*
G04 #@! TF.ProjectId,SPS-SN2-IOTester,5350532d-534e-4322-9d49-4f5465737465,1*
G04 #@! TF.SameCoordinates,Original*
G04 #@! TF.FileFunction,Copper,L1,Top*
G04 #@! TF.FilePolarity,Positive*
%FSLAX46Y46*%
G04 Gerber Fmt 4.6, Leading zero omitted, Abs format (unit mm)*
G04 Created by KiCad (PCBNEW (5.1.4)-1) date 2020-01-04 22:54:04*
%MOMM*%
%LPD*%
G04 APERTURE LIST*
%ADD10C,1.600000*%
%ADD11C,1.600000*%
%ADD12O,1.600000X1.600000*%
%ADD13C,1.800000*%
%ADD14R,1.800000X1.800000*%
%ADD15C,0.100000*%
%ADD16C,3.500000*%
%ADD17C,3.000000*%
%ADD18R,3.500000X3.500000*%
%ADD19C,2.000000*%
%ADD20R,1.398000X1.398000*%
%ADD21C,1.398000*%
%ADD22C,0.800000*%
%ADD23C,0.250000*%
%ADD24C,0.500000*%
G04 APERTURE END LIST*
D10*
X115888154Y-80361846D03*
D11*
X115888154Y-80361846D02*
X115888154Y-80361846D01*
D10*
X110500000Y-85750000D03*
D12*
X82750000Y-42630000D03*
D10*
X82750000Y-50250000D03*
D13*
X88500000Y-85250000D03*
D14*
X85960000Y-85250000D03*
D13*
X88500000Y-80750000D03*
D14*
X85960000Y-80750000D03*
D13*
X88500000Y-76250000D03*
D14*
X85960000Y-76250000D03*
D13*
X88500000Y-71750000D03*
D14*
X85960000Y-71750000D03*
D13*
X88500000Y-67250000D03*
D14*
X85960000Y-67250000D03*
D13*
X88500000Y-62750000D03*
D14*
X85960000Y-62750000D03*
D13*
X88500000Y-58250000D03*
D14*
X85960000Y-58250000D03*
D13*
X88500000Y-53750000D03*
D14*
X85960000Y-53750000D03*
D15*
G36*
X88010765Y-42504213D02*
G01*
X88095704Y-42516813D01*
X88178999Y-42537677D01*
X88259848Y-42566605D01*
X88337472Y-42603319D01*
X88411124Y-42647464D01*
X88480094Y-42698616D01*
X88543718Y-42756282D01*
X88601384Y-42819906D01*
X88652536Y-42888876D01*
X88696681Y-42962528D01*
X88733395Y-43040152D01*
X88762323Y-43121001D01*
X88783187Y-43204296D01*
X88795787Y-43289235D01*
X88800000Y-43375000D01*
X88800000Y-45125000D01*
X88795787Y-45210765D01*
X88783187Y-45295704D01*
X88762323Y-45378999D01*
X88733395Y-45459848D01*
X88696681Y-45537472D01*
X88652536Y-45611124D01*
X88601384Y-45680094D01*
X88543718Y-45743718D01*
X88480094Y-45801384D01*
X88411124Y-45852536D01*
X88337472Y-45896681D01*
X88259848Y-45933395D01*
X88178999Y-45962323D01*
X88095704Y-45983187D01*
X88010765Y-45995787D01*
X87925000Y-46000000D01*
X86175000Y-46000000D01*
X86089235Y-45995787D01*
X86004296Y-45983187D01*
X85921001Y-45962323D01*
X85840152Y-45933395D01*
X85762528Y-45896681D01*
X85688876Y-45852536D01*
X85619906Y-45801384D01*
X85556282Y-45743718D01*
X85498616Y-45680094D01*
X85447464Y-45611124D01*
X85403319Y-45537472D01*
X85366605Y-45459848D01*
X85337677Y-45378999D01*
X85316813Y-45295704D01*
X85304213Y-45210765D01*
X85300000Y-45125000D01*
X85300000Y-43375000D01*
X85304213Y-43289235D01*
X85316813Y-43204296D01*
X85337677Y-43121001D01*
X85366605Y-43040152D01*
X85403319Y-42962528D01*
X85447464Y-42888876D01*
X85498616Y-42819906D01*
X85556282Y-42756282D01*
X85619906Y-42698616D01*
X85688876Y-42647464D01*
X85762528Y-42603319D01*
X85840152Y-42566605D01*
X85921001Y-42537677D01*
X86004296Y-42516813D01*
X86089235Y-42504213D01*
X86175000Y-42500000D01*
X87925000Y-42500000D01*
X88010765Y-42504213D01*
X88010765Y-42504213D01*
G37*
D16*
X87050000Y-44250000D03*
D15*
G36*
X92823513Y-39753611D02*
G01*
X92896318Y-39764411D01*
X92967714Y-39782295D01*
X93037013Y-39807090D01*
X93103548Y-39838559D01*
X93166678Y-39876398D01*
X93225795Y-39920242D01*
X93280330Y-39969670D01*
X93329758Y-40024205D01*
X93373602Y-40083322D01*
X93411441Y-40146452D01*
X93442910Y-40212987D01*
X93467705Y-40282286D01*
X93485589Y-40353682D01*
X93496389Y-40426487D01*
X93500000Y-40500000D01*
X93500000Y-42000000D01*
X93496389Y-42073513D01*
X93485589Y-42146318D01*
X93467705Y-42217714D01*
X93442910Y-42287013D01*
X93411441Y-42353548D01*
X93373602Y-42416678D01*
X93329758Y-42475795D01*
X93280330Y-42530330D01*
X93225795Y-42579758D01*
X93166678Y-42623602D01*
X93103548Y-42661441D01*
X93037013Y-42692910D01*
X92967714Y-42717705D01*
X92896318Y-42735589D01*
X92823513Y-42746389D01*
X92750000Y-42750000D01*
X90750000Y-42750000D01*
X90676487Y-42746389D01*
X90603682Y-42735589D01*
X90532286Y-42717705D01*
X90462987Y-42692910D01*
X90396452Y-42661441D01*
X90333322Y-42623602D01*
X90274205Y-42579758D01*
X90219670Y-42530330D01*
X90170242Y-42475795D01*
X90126398Y-42416678D01*
X90088559Y-42353548D01*
X90057090Y-42287013D01*
X90032295Y-42217714D01*
X90014411Y-42146318D01*
X90003611Y-42073513D01*
X90000000Y-42000000D01*
X90000000Y-40500000D01*
X90003611Y-40426487D01*
X90014411Y-40353682D01*
X90032295Y-40282286D01*
X90057090Y-40212987D01*
X90088559Y-40146452D01*
X90126398Y-40083322D01*
X90170242Y-40024205D01*
X90219670Y-39969670D01*
X90274205Y-39920242D01*
X90333322Y-39876398D01*
X90396452Y-39838559D01*
X90462987Y-39807090D01*
X90532286Y-39782295D01*
X90603682Y-39764411D01*
X90676487Y-39753611D01*
X90750000Y-39750000D01*
X92750000Y-39750000D01*
X92823513Y-39753611D01*
X92823513Y-39753611D01*
G37*
D17*
X91750000Y-41250000D03*
D18*
X91750000Y-47250000D03*
D19*
X107250000Y-80750000D03*
X107250000Y-85250000D03*
X100750000Y-80750000D03*
X100750000Y-85250000D03*
X97750000Y-80750000D03*
X97750000Y-85250000D03*
X91250000Y-80750000D03*
X91250000Y-85250000D03*
X107250000Y-71750000D03*
X107250000Y-76250000D03*
X100750000Y-71750000D03*
X100750000Y-76250000D03*
X97750000Y-71750000D03*
X97750000Y-76250000D03*
X91250000Y-71750000D03*
X91250000Y-76250000D03*
X107250000Y-62750000D03*
X107250000Y-67250000D03*
X100750000Y-62750000D03*
X100750000Y-67250000D03*
X97750000Y-62750000D03*
X97750000Y-67250000D03*
X91250000Y-62750000D03*
X91250000Y-67250000D03*
X107250000Y-53750000D03*
X107250000Y-58250000D03*
X100750000Y-53750000D03*
X100750000Y-58250000D03*
X97750000Y-53750000D03*
X97750000Y-58250000D03*
X91250000Y-53750000D03*
X91250000Y-58250000D03*
D20*
X104670000Y-41040000D03*
D21*
X105690000Y-42820000D03*
X106710000Y-41040000D03*
X107730000Y-42820000D03*
X108750000Y-41040000D03*
X109770000Y-42820000D03*
X110790000Y-41040000D03*
X111810000Y-42820000D03*
D10*
X115750000Y-76250000D03*
D11*
X115750000Y-76250000D02*
X115750000Y-76250000D01*
D10*
X110361846Y-81638154D03*
X115750000Y-72000000D03*
D11*
X115750000Y-72000000D02*
X115750000Y-72000000D01*
D10*
X110361846Y-77388154D03*
X115750000Y-67750000D03*
D11*
X115750000Y-67750000D02*
X115750000Y-67750000D01*
D10*
X110361846Y-73138154D03*
X115750000Y-63500000D03*
D11*
X115750000Y-63500000D02*
X115750000Y-63500000D01*
D10*
X110361846Y-68888154D03*
X115750000Y-59250000D03*
D11*
X115750000Y-59250000D02*
X115750000Y-59250000D01*
D10*
X110361846Y-64638154D03*
X115750000Y-55000000D03*
D11*
X115750000Y-55000000D02*
X115750000Y-55000000D01*
D10*
X110361846Y-60388154D03*
X115638154Y-50861846D03*
D11*
X115638154Y-50861846D02*
X115638154Y-50861846D01*
D10*
X110250000Y-56250000D03*
D22*
X110250000Y-48000000D03*
X112549999Y-48000000D03*
X114000000Y-46750000D03*
D23*
X104665999Y-43311521D02*
X109354478Y-48000000D01*
X104665999Y-41993001D02*
X104665999Y-43311521D01*
X104670000Y-41040000D02*
X104670000Y-41989000D01*
X104670000Y-41989000D02*
X104665999Y-41993001D01*
X109354478Y-48000000D02*
X110250000Y-48000000D01*
X108750000Y-41040000D02*
X110040000Y-39750000D01*
X110040000Y-39750000D02*
X112250000Y-39750000D01*
X112250000Y-39750000D02*
X115250000Y-42750000D01*
X115250000Y-42750000D02*
X115250000Y-47250000D01*
X115250000Y-47250000D02*
X114500000Y-48000000D01*
X114500000Y-48000000D02*
X112750000Y-48000000D01*
X112750000Y-48000000D02*
X113823002Y-48000000D01*
X113823002Y-48000000D02*
X112549999Y-48000000D01*
X110790000Y-41040000D02*
X112290000Y-41040000D01*
X112290000Y-41040000D02*
X114000000Y-42750000D01*
X114000000Y-42750000D02*
X114000000Y-46750000D01*
D24*
X82750000Y-46000000D02*
X82750000Y-42630000D01*
X91750000Y-47250000D02*
X84000000Y-47250000D01*
X84000000Y-47250000D02*
X82750000Y-46000000D01*
D23*
X100750000Y-53750000D02*
X107250000Y-53750000D01*
X100750000Y-62750000D02*
X107250000Y-62750000D01*
X100750000Y-71750000D02*
X107250000Y-71750000D01*
X100750000Y-80750000D02*
X107250000Y-80750000D01*
X99750000Y-56250000D02*
X110250000Y-56250000D01*
X97750000Y-58250000D02*
X99750000Y-56250000D01*
X91250000Y-58250000D02*
X97750000Y-58250000D01*
X102164213Y-58250000D02*
X107250000Y-58250000D01*
X100750000Y-58250000D02*
X102164213Y-58250000D01*
X91250000Y-67250000D02*
X97750000Y-67250000D01*
X100361846Y-64638154D02*
X110361846Y-64638154D01*
X97750000Y-67250000D02*
X100361846Y-64638154D01*
X91250000Y-76250000D02*
X97750000Y-76250000D01*
X91388154Y-50861846D02*
X115638154Y-50861846D01*
X88500000Y-53750000D02*
X91388154Y-50861846D01*
X114618630Y-55000000D02*
X115750000Y-55000000D01*
X114493631Y-55124999D02*
X114618630Y-55000000D01*
X91625001Y-55124999D02*
X114493631Y-55124999D01*
X88500000Y-58250000D02*
X91625001Y-55124999D01*
X114618630Y-59250000D02*
X115750000Y-59250000D01*
X109834998Y-59250000D02*
X114618630Y-59250000D01*
X108584998Y-60500000D02*
X109834998Y-59250000D01*
X90750000Y-60500000D02*
X108584998Y-60500000D01*
X88500000Y-62750000D02*
X90750000Y-60500000D01*
X100750000Y-67250000D02*
X107250000Y-67250000D01*
X109561847Y-73938153D02*
X110361846Y-73138154D01*
X109000000Y-74500000D02*
X109561847Y-73938153D01*
X99500000Y-74500000D02*
X109000000Y-74500000D01*
X97750000Y-76250000D02*
X99500000Y-74500000D01*
X114618630Y-63500000D02*
X115750000Y-63500000D01*
X109834998Y-63500000D02*
X114618630Y-63500000D01*
X109259997Y-64075001D02*
X109834998Y-63500000D01*
X91674999Y-64075001D02*
X109259997Y-64075001D01*
X88500000Y-67250000D02*
X91674999Y-64075001D01*
X114950001Y-68549999D02*
X115750000Y-67750000D01*
X113486845Y-70013155D02*
X114950001Y-68549999D01*
X90236845Y-70013155D02*
X113486845Y-70013155D01*
X88500000Y-71750000D02*
X90236845Y-70013155D01*
X100750000Y-76250000D02*
X107250000Y-76250000D01*
X109750000Y-82250000D02*
X110361846Y-81638154D01*
X109561847Y-82438153D02*
X110361846Y-81638154D01*
X108750000Y-83250000D02*
X109561847Y-82438153D01*
X99750000Y-83250000D02*
X108750000Y-83250000D01*
X97750000Y-85250000D02*
X99750000Y-83250000D01*
X114618630Y-72000000D02*
X115750000Y-72000000D01*
X109834998Y-72000000D02*
X114618630Y-72000000D01*
X108084998Y-73750000D02*
X109834998Y-72000000D01*
X91000000Y-73750000D02*
X108084998Y-73750000D01*
X88500000Y-76250000D02*
X91000000Y-73750000D01*
X114950001Y-77049999D02*
X115750000Y-76250000D01*
X113486845Y-78513155D02*
X114950001Y-77049999D01*
X90736845Y-78513155D02*
X113486845Y-78513155D01*
X88500000Y-80750000D02*
X90736845Y-78513155D01*
X100750000Y-85250000D02*
X107250000Y-85250000D01*
X114756784Y-80361846D02*
X115888154Y-80361846D01*
X109973152Y-80361846D02*
X114756784Y-80361846D01*
X108259997Y-82075001D02*
X109973152Y-80361846D01*
X91674999Y-82075001D02*
X108259997Y-82075001D01*
X88500000Y-85250000D02*
X91674999Y-82075001D01*
M02*
